<?xml version="1.0" encoding="UTF-8"?><svg xmlns="http://www.w3.org/2000/svg" xmlns:xlink="http://www.w3.org/1999/xlink" fill-opacity="1" color-rendering="auto" color-interpolation="auto" text-rendering="auto" stroke="black" stroke-linecap="square" width="1215" stroke-miterlimit="10" shape-rendering="auto" stroke-opacity="1" fill="black" stroke-dasharray="none" font-weight="normal" stroke-width="1" height="798" font-family="'Dialog'" font-style="normal" stroke-linejoin="miter" font-size="12px" stroke-dashoffset="0" image-rendering="auto">
  <!--Generated by ySVG 2.5-->
  <defs id="genericDefs"/>
  <g>
    <g fill="white" text-rendering="geometricPrecision" shape-rendering="geometricPrecision" transform="translate(-17,-119)" stroke="white">
      <rect x="17" width="1215" height="798" y="119" clip-path="url(#clipPath2)" stroke="none"/>
    </g>
    <g text-rendering="geometricPrecision" stroke-miterlimit="1.45" shape-rendering="geometricPrecision" transform="matrix(1,0,0,1,-17,-119)" stroke-linecap="butt">
      <rect fill="none" x="291.1548" width="161.8452" height="29" y="175.0929" clip-path="url(#clipPath2)"/>
      <text x="298.0479" font-size="13px" y="193.1627" clip-path="url(#clipPath3)" font-family="sans-serif" stroke="none" font-weight="bold" xml:space="preserve">Object Monitor Wrapper</text>
      <rect fill="none" x="483" width="134" height="29" y="175.0929" clip-path="url(#clipPath2)"/>
      <text x="529.7732" font-size="13px" y="193.1627" clip-path="url(#clipPath4)" font-family="sans-serif" stroke="none" font-weight="bold" xml:space="preserve">Object</text>
      <rect fill="none" x="674" width="134" height="29" y="175.0929" clip-path="url(#clipPath2)"/>
      <text x="699.4736" font-size="13px" y="193.1627" clip-path="url(#clipPath5)" font-family="sans-serif" stroke="none" font-weight="bold" xml:space="preserve">EventMonitor</text>
      <rect fill="none" x="896" width="134" height="29" y="175.0929" clip-path="url(#clipPath2)"/>
      <text x="923.6287" font-size="13px" y="193.1627" clip-path="url(#clipPath6)" font-family="sans-serif" stroke="none" font-weight="bold" xml:space="preserve">EventLoader</text>
      <rect fill="none" x="1083" width="134" height="29" y="175.0929" clip-path="url(#clipPath2)"/>
      <text x="1090.3987" font-size="13px" y="193.1627" clip-path="url(#clipPath7)" font-family="sans-serif" stroke="none" font-weight="bold" xml:space="preserve">Permanent Storage</text>
    </g>
    <g text-rendering="geometricPrecision" shape-rendering="geometricPrecision" transform="matrix(0.6143,0,0,0.6634,18.907,39.4114)">
      <g clip-path="url(#clipPath8)">
        <svg xmlns:svg="http://www.w3.org/2000/svg" xmlns:sodipodi="http://sodipodi.sourceforge.net/DTD/sodipodi-0.dtd" xmlns:inkscape="http://www.inkscape.org/namespaces/inkscape" xmlns:dc="http://purl.org/dc/elements/1.1/" xmlns:cc="http://web.resource.org/cc/" xmlns:rdf="http://www.w3.org/1999/02/22-rdf-syntax-ns#" opacity="1" writing-mode="lr-tb" stop-color="rgb(0, 0, 0)" shape-rendering="auto" glyph-orientation-horizontal="0deg" color-profile="auto" lighting-color="rgb(255, 255, 255)" color="rgb(0, 0, 0)" font-weight="400" alignment-baseline="auto" font-style="normal" version="1.0" color-interpolation-filters="linearrgb" text-anchor="start" stroke-linecap="butt" color-interpolation="srgb" font-variant="normal" word-spacing="normal" fill-opacity="1" text-rendering="auto" clip-path="none" text-decoration="none" letter-spacing="normal" glyph-orientation-vertical="auto" display="inline" font-size-adjust="none" overflow="visible" fill="rgb(0, 0, 0)" font-stretch="normal" stroke-dasharray="none" inkscape:version="0.45.1" id="svg1.svg2" stroke-miterlimit="4" stop-opacity="1" color-rendering="auto" font-size="12" sodipodi:docbase="C:\Daten\alberts\projects\yfx" pointer-events="visiblepainted" mask="none" direction="ltr" baseline-shift="baseline" sodipodi:docname="uml_actor.svg" enable-background="accumulate" fill-rule="nonzero" image-rendering="auto" stroke-dashoffset="0" inkscape:output_extension="org.inkscape.output.svg.inkscape" marker-end="none" width="41" clip="auto" cursor="auto" stroke="none" filter="none" visibility="visible" kerning="auto" stroke-width="1" font-family="&quot;Arial&quot;,&quot;Helvetica&quot;,sans-serif" flood-opacity="1" clip-rule="nonzero" src="none" height="68.997391" unicode-bidi="normal" sodipodi:version="0.32" stroke-linejoin="miter" stroke-opacity="1" flood-color="rgb(0, 0, 0)" dominant-baseline="auto" marker-start="none" marker-mid="none">
  <defs id="svg1.defs4">
            <clipPath clipPathUnits="userSpaceOnUse" id="clipPath1">
              <path d="M0 0 L1215 0 L1215 798 L0 798 L0 0 Z"/>
            </clipPath>
            <clipPath clipPathUnits="userSpaceOnUse" id="clipPath2">
              <path d="M17 119 L1232 119 L1232 917 L17 917 L17 119 Z"/>
            </clipPath>
            <clipPath clipPathUnits="userSpaceOnUse" id="clipPath3">
              <path d="M291 175 L291 204 L452 204 L452 175 Z"/>
            </clipPath>
            <clipPath clipPathUnits="userSpaceOnUse" id="clipPath4">
              <path d="M483 175 L483 204 L617 204 L617 175 Z"/>
            </clipPath>
            <clipPath clipPathUnits="userSpaceOnUse" id="clipPath5">
              <path d="M674 175 L674 204 L808 204 L808 175 Z"/>
            </clipPath>
            <clipPath clipPathUnits="userSpaceOnUse" id="clipPath6">
              <path d="M896 175 L896 204 L1030 204 L1030 175 Z"/>
            </clipPath>
            <clipPath clipPathUnits="userSpaceOnUse" id="clipPath7">
              <path d="M1083 175 L1083 204 L1217 204 L1217 175 Z"/>
            </clipPath>
            <clipPath clipPathUnits="userSpaceOnUse" id="clipPath8">
              <path d="M-30.7786 -59.4048 L1947.1093 -59.4048 L1947.1093 1143.4216 L-30.7786 1143.4216 L-30.7786 -59.4048 Z"/>
            </clipPath>
            <clipPath clipPathUnits="userSpaceOnUse" id="clipPath9">
              <path d="M118 175 L118 204 L252 204 L252 175 Z"/>
            </clipPath>
          </defs>
  
  <metadata id="svg1.metadata7">
    
  </metadata>
  <g inkscape:groupmode="layer" id="svg1.layer1" transform="translate(-29.5,-42.959476)" inkscape:label="Ebene 1">
    <a id="svg1.a3142" transform="matrix(1.0873906,0,0,1,-4.4741999,0)">
      <path transform="translate(11.586889,5.2908993)" style="fill:none;fill-rule:evenodd;stroke:#000000;stroke-width:1px;stroke-linecap:butt;stroke-linejoin:miter;stroke-opacity:1" sodipodi:cx="38.509369" sodipodi:cy="47.36993" sodipodi:rx="8.5197716" id="svg1.path2160" d="M 47.02914 47.36993 A 8.5197716 9.2013531 0 1 1  29.989597,47.36993 A 8.5197716 9.2013531 0 1 1  47.02914 47.36993 z" sodipodi:ry="9.2013531" sodipodi:type="arc"/>
    </a>
    <path style="fill:none" sodipodi:cx="43.962021" sodipodi:cy="48.392303" d="M 47.71072 48.392303 A 3.7486994 0 0 1 1  40.213321,48.392303 A 3.7486994 0 0 1 1  47.71072 48.392303 z" id="svg1.path3134" sodipodi:rx="3.7486994" sodipodi:ry="0" sodipodi:type="arc"/>
    <path style="fill:none;fill-rule:evenodd;stroke:#000000;stroke-width:1.24319649px;stroke-linecap:butt;stroke-linejoin:miter;stroke-opacity:1" d="M 50,61.33709 C 50,91.363211 50,92.247838 50,92.247838" id="svg1.path3136"/>
    <path style="fill:none;fill-rule:evenodd;stroke:#000000;stroke-width:1px;stroke-linecap:butt;stroke-linejoin:miter;stroke-opacity:1" d="M 69.760668,72.362183 C 69.760668,72.362183 69.760668,72.362183 50.239332,72.362183 C 30.239332,72.362183 30.239332,72.362183 30.239332,72.362183 L 30.239332,72.362183" id="svg1.path3138"/>
    <path style="fill:none;fill-rule:evenodd;stroke:#000000;stroke-width:1px;stroke-linecap:butt;stroke-linejoin:miter;stroke-opacity:1" d="M 30,111.45687 C 30,111.45687 30,111.45687 50,92.013532 C 70,111.45687 70,111.45687 70,111.45687" id="svg1.path3140"/>
  </g>
</svg>
      </g>
    </g>
    <g font-size="13px" stroke-linecap="butt" transform="matrix(1,0,0,1,-17,-119)" text-rendering="geometricPrecision" font-family="sans-serif" shape-rendering="geometricPrecision" stroke-miterlimit="1.45">
      <text x="34.7764" xml:space="preserve" y="149.2364" clip-path="url(#clipPath2)" stroke="none">User</text>
    </g>
    <g fill="silver" text-rendering="geometricPrecision" shape-rendering="geometricPrecision" transform="matrix(1,0,0,1,-17,-119)" stroke="silver">
      <rect x="40.5" width="16" height="312.6099" y="300" clip-path="url(#clipPath2)" stroke="none"/>
    </g>
    <g text-rendering="geometricPrecision" stroke-miterlimit="1.45" shape-rendering="geometricPrecision" transform="matrix(1,0,0,1,-17,-119)" stroke-linecap="butt">
      <rect fill="none" x="40.5" width="16" height="312.6099" y="300" clip-path="url(#clipPath2)"/>
      <rect fill="none" x="118" width="134" height="29" y="175.0929" clip-path="url(#clipPath2)"/>
      <text x="153.5886" font-size="13px" y="193.1627" clip-path="url(#clipPath9)" font-family="sans-serif" stroke="none" font-weight="bold" xml:space="preserve">UI Control</text>
    </g>
    <g fill="silver" text-rendering="geometricPrecision" shape-rendering="geometricPrecision" transform="matrix(1,0,0,1,-17,-119)" stroke="silver">
      <rect x="177" width="16" height="28" y="300" clip-path="url(#clipPath2)" stroke="none"/>
    </g>
    <g text-rendering="geometricPrecision" stroke-miterlimit="1.45" shape-rendering="geometricPrecision" transform="matrix(1,0,0,1,-17,-119)" stroke-linecap="butt">
      <rect fill="none" x="177" width="16" height="28" y="300" clip-path="url(#clipPath2)"/>
    </g>
    <g fill="silver" text-rendering="geometricPrecision" shape-rendering="geometricPrecision" transform="matrix(1,0,0,1,-17,-119)" stroke="silver">
      <rect x="368" width="16" height="360" y="300" clip-path="url(#clipPath2)" stroke="none"/>
    </g>
    <g text-rendering="geometricPrecision" stroke-miterlimit="1.45" shape-rendering="geometricPrecision" transform="matrix(1,0,0,1,-17,-119)" stroke-linecap="butt">
      <rect fill="none" x="368" width="16" height="360" y="300" clip-path="url(#clipPath2)"/>
    </g>
    <g fill="silver" text-rendering="geometricPrecision" shape-rendering="geometricPrecision" transform="matrix(1,0,0,1,-17,-119)" stroke="silver">
      <rect x="733" width="16" height="429.7957" y="300" clip-path="url(#clipPath2)" stroke="none"/>
    </g>
    <g text-rendering="geometricPrecision" stroke-miterlimit="1.45" shape-rendering="geometricPrecision" transform="matrix(1,0,0,1,-17,-119)" stroke-linecap="butt">
      <rect fill="none" x="733" width="16" height="429.7957" y="300" clip-path="url(#clipPath2)"/>
    </g>
    <g fill="white" text-rendering="geometricPrecision" shape-rendering="geometricPrecision" transform="matrix(1,0,0,1,-17,-119)" stroke="white">
      <rect x="376" width="16" height="29" y="372" clip-path="url(#clipPath2)" stroke="none"/>
    </g>
    <g text-rendering="geometricPrecision" stroke-miterlimit="1.45" shape-rendering="geometricPrecision" transform="matrix(1,0,0,1,-17,-119)" stroke-linecap="butt">
      <rect fill="none" x="376" width="16" height="29" y="372" clip-path="url(#clipPath2)"/>
    </g>
    <g fill="silver" text-rendering="geometricPrecision" shape-rendering="geometricPrecision" transform="matrix(1,0,0,1,-17,-119)" stroke="silver">
      <rect x="542" width="16" height="88" y="428" clip-path="url(#clipPath2)" stroke="none"/>
    </g>
    <g text-rendering="geometricPrecision" stroke-miterlimit="1.45" shape-rendering="geometricPrecision" transform="matrix(1,0,0,1,-17,-119)" stroke-linecap="butt">
      <rect fill="none" x="542" width="16" height="88" y="428" clip-path="url(#clipPath2)"/>
    </g>
    <g fill="white" text-rendering="geometricPrecision" shape-rendering="geometricPrecision" transform="matrix(1,0,0,1,-17,-119)" stroke="white">
      <rect x="376" width="16" height="29" y="563" clip-path="url(#clipPath2)" stroke="none"/>
    </g>
    <g text-rendering="geometricPrecision" stroke-miterlimit="1.45" shape-rendering="geometricPrecision" transform="matrix(1,0,0,1,-17,-119)" stroke-linecap="butt">
      <rect fill="none" x="376" width="16" height="29" y="563" clip-path="url(#clipPath2)"/>
    </g>
    <g fill="silver" text-rendering="geometricPrecision" shape-rendering="geometricPrecision" transform="matrix(1,0,0,1,-17,-119)" stroke="silver">
      <rect x="955" width="16" height="164.6068" y="727.5913" clip-path="url(#clipPath2)" stroke="none"/>
    </g>
    <g text-rendering="geometricPrecision" stroke-miterlimit="1.45" shape-rendering="geometricPrecision" transform="matrix(1,0,0,1,-17,-119)" stroke-linecap="butt">
      <rect fill="none" x="955" width="16" height="164.6068" y="727.5913" clip-path="url(#clipPath2)"/>
    </g>
    <g fill="silver" text-rendering="geometricPrecision" shape-rendering="geometricPrecision" transform="matrix(1,0,0,1,-17,-119)" stroke="silver">
      <rect x="1142" width="16" height="69.0155" y="823.1827" clip-path="url(#clipPath2)" stroke="none"/>
    </g>
    <g text-rendering="geometricPrecision" stroke-miterlimit="1.45" shape-rendering="geometricPrecision" transform="matrix(1,0,0,1,-17,-119)" stroke-linecap="butt">
      <rect fill="none" x="1142" width="16" height="69.0155" y="823.1827" clip-path="url(#clipPath2)"/>
      <path fill="none" stroke-dasharray="6,2" d="M48.5 204.1056 L48.5 300.0042" clip-path="url(#clipPath2)"/>
      <path fill="none" d="M56.5006 300.0287 L165.9829 300.0287" clip-path="url(#clipPath2)"/>
      <path d="M176.9829 300.0287 L164.9829 294.0287 L164.9829 306.0287 Z" clip-path="url(#clipPath2)" stroke="none"/>
      <rect x="85.4004" y="290.6781" clip-path="url(#clipPath2)" fill="white" width="62.6992" height="18.7012" stroke="none"/>
      <text x="87.4004" xml:space="preserve" y="304.7425" clip-path="url(#clipPath2)" font-family="sans-serif" stroke="none">user action</text>
      <path fill="none" stroke-dasharray="6,2" d="M185 299.9981 L185 204.0674" clip-path="url(#clipPath2)"/>
      <path fill="none" d="M185 299.9844 L365 299.9738" clip-path="url(#clipPath2)"/>
      <path d="M376 299.9731 L363.9997 293.9738 L364.0003 305.9738 Z" clip-path="url(#clipPath2)" stroke="none"/>
      <rect x="256.8232" y="290.6282" clip-path="url(#clipPath2)" fill="white" width="47.3535" height="18.7012" stroke="none"/>
      <text x="258.8232" xml:space="preserve" y="304.6926" clip-path="url(#clipPath2)" font-family="sans-serif" stroke="none">callback</text>
      <path fill="none" stroke-dasharray="6,2" d="M372.2733 204.092 L373.5684 299.9794" clip-path="url(#clipPath2)"/>
      <path fill="none" stroke-dasharray="6,2" d="M367.9754 612.4413 L61.4947 612.5854" clip-path="url(#clipPath2)"/>
      <path stroke-dasharray="6,2" d="M57.4947 612.5873 L69.4975 618.5816 L57.4947 612.5873 L69.4918 606.5816 Z" clip-path="url(#clipPath2)" stroke="none"/>
      <path fill="none" stroke-miterlimit="10" d="M57.4947 612.5873 L69.4975 618.5816 L57.4947 612.5873 L69.4918 606.5816 Z" clip-path="url(#clipPath2)" stroke-linecap="square"/>
      <path fill="none" stroke-dasharray="6,2" d="M741 204.0871 L741 299.9634" clip-path="url(#clipPath2)"/>
      <path fill="none" d="M384.0305 300.0105 L722.0257 300.0101" clip-path="url(#clipPath2)"/>
      <path d="M733.0257 300.0101 L721.0257 294.0101 L721.0257 306.0101 Z" clip-path="url(#clipPath2)" stroke="none"/>
      <rect x="416.9474" y="290.6598" clip-path="url(#clipPath2)" fill="white" width="71.3652" height="18.7012" stroke="none"/>
      <text x="418.9474" xml:space="preserve" y="304.7243" clip-path="url(#clipPath2)" font-family="sans-serif" stroke="none">getSession()</text>
      <path fill="none" d="M376 660.0269 L721.9902 660.0269" clip-path="url(#clipPath2)"/>
      <path d="M732.9902 660.0269 L720.9902 654.0269 L720.9902 666.0269 Z" clip-path="url(#clipPath2)" stroke="none"/>
      <rect x="502.6481" y="650.6763" clip-path="url(#clipPath2)" fill="white" width="74.0254" height="18.7012" stroke="none"/>
      <text x="504.6481" xml:space="preserve" y="664.7407" clip-path="url(#clipPath2)" font-family="sans-serif" stroke="none">reportEvent()</text>
      <path fill="none" d="M732.9958 333.9688 L395.0239 333.9688" clip-path="url(#clipPath2)"/>
      <path d="M384.0239 333.9688 L396.0239 339.9688 L396.0239 327.9688 Z" clip-path="url(#clipPath2)" stroke="none"/>
      <rect x="610.4333" y="324.6182" clip-path="url(#clipPath2)" fill="white" width="64.7031" height="18.7012" stroke="none"/>
      <text x="612.4333" xml:space="preserve" y="338.6827" clip-path="url(#clipPath2)" font-family="sans-serif" stroke="none">sessionInfo</text>
      <path fill="none" d="M384.0391 366.0159 L459 366.0159 L459 386.5 L403.0132 386.5" clip-path="url(#clipPath2)"/>
      <path d="M392.0132 386.5 L404.0132 392.5 L404.0132 380.5 Z" clip-path="url(#clipPath2)" stroke="none"/>
      <text x="400.002" xml:space="preserve" y="400.7298" clip-path="url(#clipPath2)" font-family="sans-serif" stroke="none">startTime()</text>
      <path fill="none" stroke-dasharray="6,2" d="M550 204.1062 L550 428.016" clip-path="url(#clipPath2)"/>
      <path fill="none" d="M384.0391 427.9953 L529 427.9953" clip-path="url(#clipPath2)"/>
      <path d="M540 427.9953 L528 421.9953 L528 433.9953 Z" clip-path="url(#clipPath2)" stroke="none"/>
      <rect x="413.3105" y="418.6447" clip-path="url(#clipPath2)" fill="white" width="99.3789" height="18.7012" stroke="none"/>
      <text x="415.3105" xml:space="preserve" y="432.7092" clip-path="url(#clipPath2)" font-family="sans-serif" stroke="none">businessMethod()</text>
      <path fill="none" stroke-dasharray="6,2" d="M541.9609 514.2222 L389.0391 514.2222" clip-path="url(#clipPath2)"/>
      <path stroke-dasharray="6,2" d="M385.0391 514.2222 L397.0391 520.2222 L385.0391 514.2222 L397.0391 508.2222 Z" clip-path="url(#clipPath2)" stroke="none"/>
      <path fill="none" stroke-miterlimit="10" d="M385.0391 514.2222 L397.0391 520.2222 L385.0391 514.2222 L397.0391 508.2222 Z" clip-path="url(#clipPath2)" stroke-linecap="square"/>
      <path fill="none" d="M384.0208 553.7209 L453 553.7209 L453 577.5 L403.0103 577.5" clip-path="url(#clipPath2)"/>
      <path d="M392.0103 577.5 L404.0103 583.5 L404.0103 571.5 Z" clip-path="url(#clipPath2)" stroke="none"/>
      <text x="408.3301" xml:space="preserve" y="588.4348" clip-path="url(#clipPath2)" font-family="sans-serif" stroke="none">endTime()</text>
      <path fill="none" stroke-dasharray="6,2" d="M963 204.0933 L963 727.6249" clip-path="url(#clipPath2)"/>
      <path fill="none" d="M749.0201 729.7752 L943.9836 729.7752" clip-path="url(#clipPath2)"/>
      <path d="M954.9836 729.7752 L942.9836 723.7752 L942.9836 735.7752 Z" clip-path="url(#clipPath2)" stroke="none"/>
      <rect x="803.9746" y="720.4246" clip-path="url(#clipPath2)" fill="white" width="96.0508" height="18.7012" stroke="none"/>
      <text x="805.9746" xml:space="preserve" y="734.4891" clip-path="url(#clipPath2)" font-family="sans-serif" stroke="none">loadEventBatch()</text>
      <path fill="none" stroke-dasharray="6,2" d="M1150 204.0689 L1150 823.1822" clip-path="url(#clipPath2)"/>
      <path fill="none" d="M971.037 823.223 L1131.0044 823.223" clip-path="url(#clipPath2)"/>
      <path d="M1142.0044 823.223 L1130.0044 817.223 L1130.0044 829.223 Z" clip-path="url(#clipPath2)" stroke="none"/>
      <rect x="1006.4795" y="813.8724" clip-path="url(#clipPath2)" fill="white" width="100.041" height="18.7012" stroke="none"/>
      <text x="1008.4795" xml:space="preserve" y="827.9368" clip-path="url(#clipPath2)" font-family="sans-serif" stroke="none">storeEventBatch()</text>
      <path fill="none" stroke-dasharray="6,2" d="M1142.0015 892.1578 L976.0146 892.1578" clip-path="url(#clipPath2)"/>
      <path stroke-dasharray="6,2" d="M972.0146 892.1578 L984.0146 898.1578 L972.0146 892.1578 L984.0146 886.1578 Z" clip-path="url(#clipPath2)" stroke="none"/>
      <path fill="none" stroke-miterlimit="10" d="M972.0146 892.1578 L984.0146 898.1578 L972.0146 892.1578 L984.0146 886.1578 Z" clip-path="url(#clipPath2)" stroke-linecap="square"/>
      <rect x="1032.8232" y="882.8072" clip-path="url(#clipPath2)" fill="white" width="47.3535" stroke-dasharray="6,2" height="18.7012" stroke="none"/>
      <text x="1034.8232" xml:space="preserve" y="896.8717" clip-path="url(#clipPath2)" font-family="sans-serif" stroke="none">callback</text>
    </g>
  </g>
</svg>
