<?xml version="1.0" encoding="UTF-8"?><svg xmlns="http://www.w3.org/2000/svg" xmlns:xlink="http://www.w3.org/1999/xlink" fill-opacity="1" color-rendering="auto" color-interpolation="auto" text-rendering="auto" stroke="black" stroke-linecap="square" width="718" stroke-miterlimit="10" shape-rendering="auto" stroke-opacity="1" fill="black" stroke-dasharray="none" font-weight="normal" stroke-width="1" height="1153" font-family="'Dialog'" font-style="normal" stroke-linejoin="miter" font-size="12px" stroke-dashoffset="0" image-rendering="auto">
  <!--Generated by ySVG 2.5-->
  <defs id="genericDefs"/>
  <g>
    <defs id="defs1">
      <clipPath clipPathUnits="userSpaceOnUse" id="clipPath1">
        <path d="M0 0 L718 0 L718 1153 L0 1153 L0 0 Z"/>
      </clipPath>
      <clipPath clipPathUnits="userSpaceOnUse" id="clipPath2">
        <path d="M5 -15 L723 -15 L723 1138 L5 1138 L5 -15 Z"/>
      </clipPath>
      <clipPath clipPathUnits="userSpaceOnUse" id="clipPath3">
        <path d="M330 921 L330 1123 L554 1123 L554 921 Z"/>
      </clipPath>
      <clipPath clipPathUnits="userSpaceOnUse" id="clipPath4">
        <path d="M484 233 L484 435 L708 435 L708 233 Z"/>
      </clipPath>
      <clipPath clipPathUnits="userSpaceOnUse" id="clipPath5">
        <path d="M203 0 L203 202 L427 202 L427 0 Z"/>
      </clipPath>
      <clipPath clipPathUnits="userSpaceOnUse" id="clipPath6">
        <path d="M20 233 L20 435 L244 435 L244 233 Z"/>
      </clipPath>
      <clipPath clipPathUnits="userSpaceOnUse" id="clipPath7">
        <path d="M76 729 L76 870 L300 870 L300 729 Z"/>
      </clipPath>
      <clipPath clipPathUnits="userSpaceOnUse" id="clipPath8">
        <path d="M330 699 L330 901 L554 901 L554 699 Z"/>
      </clipPath>
      <clipPath clipPathUnits="userSpaceOnUse" id="clipPath9">
        <path d="M274 466 L274 668 L498 668 L498 466 Z"/>
      </clipPath>
      <clipPath clipPathUnits="userSpaceOnUse" id="clipPath10">
        <path d="M76 951 L76 1092 L300 1092 L300 951 Z"/>
      </clipPath>
    </defs>
    <g fill="white" text-rendering="geometricPrecision" shape-rendering="geometricPrecision" transform="translate(-5,15)" stroke="white">
      <rect x="5" width="718" height="1153" y="-15" clip-path="url(#clipPath2)" stroke="none"/>
    </g>
    <g fill="white" text-rendering="geometricPrecision" shape-rendering="geometricPrecision" transform="matrix(1,0,0,1,-5,15)" stroke="white">
      <rect x="330" width="224" height="202" y="921" clip-path="url(#clipPath2)" stroke="none"/>
    </g>
    <g text-rendering="geometricPrecision" stroke-miterlimit="1.45" shape-rendering="geometricPrecision" transform="matrix(1,0,0,1,-5,15)" stroke-linecap="butt">
      <rect fill="none" x="330" width="224" height="202" y="921" clip-path="url(#clipPath2)"/>
      <text x="402.6287" font-size="13px" y="939.0698" clip-path="url(#clipPath3)" font-family="sans-serif" stroke="none" font-weight="bold" xml:space="preserve">EventLoader</text>
      <line stroke-linecap="square" clip-path="url(#clipPath3)" fill="none" x1="331" x2="553" y1="946" y2="946" stroke-miterlimit="10"/>
      <text x="335" xml:space="preserve" y="963.9907" clip-path="url(#clipPath3)" font-family="sans-serif" stroke="none">Events</text>
      <line stroke-linecap="square" clip-path="url(#clipPath3)" fill="none" x1="331" x2="553" y1="971" y2="971" stroke-miterlimit="10"/>
    </g>
    <g fill="white" text-rendering="geometricPrecision" shape-rendering="geometricPrecision" transform="matrix(1,0,0,1,-5,15)" stroke="white">
      <rect x="484" width="224" height="202" y="233" clip-path="url(#clipPath2)" stroke="none"/>
    </g>
    <g text-rendering="geometricPrecision" stroke-miterlimit="1.45" shape-rendering="geometricPrecision" transform="matrix(1,0,0,1,-5,15)" stroke-linecap="butt">
      <rect fill="none" x="484" width="224" height="202" y="233" clip-path="url(#clipPath2)"/>
      <text x="555.175" font-size="13px" y="251.0698" clip-path="url(#clipPath4)" font-family="sans-serif" stroke="none" font-weight="bold" xml:space="preserve">SystemEvent</text>
    </g>
    <g fill="white" text-rendering="geometricPrecision" shape-rendering="geometricPrecision" transform="matrix(1,0,0,1,-5,15)" stroke="white">
      <rect x="203" width="224" height="202" y="0" clip-path="url(#clipPath2)" stroke="none"/>
    </g>
    <g text-rendering="geometricPrecision" stroke-miterlimit="1.45" shape-rendering="geometricPrecision" transform="matrix(1,0,0,1,-5,15)" stroke-linecap="butt">
      <rect fill="none" x="203" width="224" height="202" y="0" clip-path="url(#clipPath2)"/>
      <text x="257.9282" font-size="13px" y="18.0698" clip-path="url(#clipPath5)" font-family="sans-serif" stroke="none" font-weight="bold" xml:space="preserve">UserInitiatedEvent</text>
      <line stroke-linecap="square" clip-path="url(#clipPath5)" fill="none" x1="204" x2="426" y1="25" y2="25" stroke-miterlimit="10"/>
      <text x="208" xml:space="preserve" y="42.9907" clip-path="url(#clipPath5)" font-family="sans-serif" stroke="none">UserActionEventID</text>
      <line stroke-linecap="square" clip-path="url(#clipPath5)" fill="none" x1="204" x2="426" y1="50" y2="50" stroke-miterlimit="10"/>
    </g>
    <g fill="white" text-rendering="geometricPrecision" shape-rendering="geometricPrecision" transform="matrix(1,0,0,1,-5,15)" stroke="white">
      <rect x="20" width="224" height="202" y="233" clip-path="url(#clipPath2)" stroke="none"/>
    </g>
    <g text-rendering="geometricPrecision" stroke-miterlimit="1.45" shape-rendering="geometricPrecision" transform="matrix(1,0,0,1,-5,15)" stroke-linecap="butt">
      <rect fill="none" x="20" width="224" height="202" y="233" clip-path="url(#clipPath2)"/>
      <text x="79.6255" font-size="13px" y="251.0698" clip-path="url(#clipPath6)" font-family="sans-serif" stroke="none" font-weight="bold" xml:space="preserve">UserActionEvent</text>
    </g>
    <g fill="white" text-rendering="geometricPrecision" shape-rendering="geometricPrecision" transform="matrix(1,0,0,1,-5,15)" stroke="white">
      <rect x="76" width="224" height="141" y="729.5" clip-path="url(#clipPath2)" stroke="none"/>
    </g>
    <g text-rendering="geometricPrecision" stroke-miterlimit="1.45" shape-rendering="geometricPrecision" transform="matrix(1,0,0,1,-5,15)" stroke-linecap="butt">
      <rect fill="none" x="76" width="224" height="141" y="729.5" clip-path="url(#clipPath2)"/>
      <text x="163.0728" font-size="13px" y="747.5698" clip-path="url(#clipPath7)" font-family="sans-serif" stroke="none" font-weight="bold" xml:space="preserve">Session</text>
      <line stroke-linecap="square" clip-path="url(#clipPath7)" fill="none" x1="77" x2="299" y1="755" y2="755" stroke-miterlimit="10"/>
      <text x="81" xml:space="preserve" y="772.4907" clip-path="url(#clipPath7)" font-family="sans-serif" stroke="none">SessionID</text>
      <text x="81" xml:space="preserve" y="787.1919" clip-path="url(#clipPath7)" font-family="sans-serif" stroke="none">SessionSignature</text>
      <text x="81" xml:space="preserve" y="801.8931" clip-path="url(#clipPath7)" font-family="sans-serif" stroke="none">UserID</text>
      <line stroke-linecap="square" clip-path="url(#clipPath7)" fill="none" x1="77" x2="299" y1="809" y2="809" stroke-miterlimit="10"/>
    </g>
    <g fill="white" text-rendering="geometricPrecision" shape-rendering="geometricPrecision" transform="matrix(1,0,0,1,-5,15)" stroke="white">
      <rect x="330" width="224" height="202" y="699" clip-path="url(#clipPath2)" stroke="none"/>
    </g>
    <g text-rendering="geometricPrecision" stroke-miterlimit="1.45" shape-rendering="geometricPrecision" transform="matrix(1,0,0,1,-5,15)" stroke-linecap="butt">
      <rect fill="none" x="330" width="224" height="202" y="699" clip-path="url(#clipPath2)"/>
      <text x="400.4736" font-size="13px" y="717.0698" clip-path="url(#clipPath8)" font-family="sans-serif" stroke="none" font-weight="bold" xml:space="preserve">EventMonitor</text>
      <line stroke-linecap="square" clip-path="url(#clipPath8)" fill="none" x1="331" x2="553" y1="724" y2="724" stroke-miterlimit="10"/>
      <text x="335" xml:space="preserve" y="741.9907" clip-path="url(#clipPath8)" font-family="sans-serif" stroke="none">Events</text>
      <line stroke-linecap="square" clip-path="url(#clipPath8)" fill="none" x1="331" x2="553" y1="749" y2="749" stroke-miterlimit="10"/>
    </g>
    <g fill="white" text-rendering="geometricPrecision" shape-rendering="geometricPrecision" transform="matrix(1,0,0,1,-5,15)" stroke="white">
      <rect x="274" width="224" height="202" y="466" clip-path="url(#clipPath2)" stroke="none"/>
    </g>
    <g text-rendering="geometricPrecision" stroke-miterlimit="1.45" shape-rendering="geometricPrecision" transform="matrix(1,0,0,1,-5,15)" stroke-linecap="butt">
      <rect fill="none" x="274" width="224" height="202" y="466" clip-path="url(#clipPath2)"/>
      <text x="368.2996" font-size="13px" y="484.0698" clip-path="url(#clipPath9)" font-family="sans-serif" stroke="none" font-weight="bold" xml:space="preserve">Event</text>
      <line stroke-linecap="square" clip-path="url(#clipPath9)" fill="none" x1="275" x2="497" y1="491" y2="491" stroke-miterlimit="10"/>
      <text x="279" xml:space="preserve" y="508.9907" clip-path="url(#clipPath9)" font-family="sans-serif" stroke="none">EventID</text>
      <line stroke-linecap="square" clip-path="url(#clipPath9)" fill="none" x1="275" x2="497" y1="516" y2="516" stroke-miterlimit="10"/>
    </g>
    <g fill="white" text-rendering="geometricPrecision" shape-rendering="geometricPrecision" transform="matrix(1,0,0,1,-5,15)" stroke="white">
      <rect x="76" width="224" height="141" y="951.5" clip-path="url(#clipPath2)" stroke="none"/>
    </g>
    <g text-rendering="geometricPrecision" stroke-miterlimit="1.45" shape-rendering="geometricPrecision" transform="matrix(1,0,0,1,-5,15)" stroke-linecap="butt">
      <rect fill="none" x="76" width="224" height="141" y="951.5" clip-path="url(#clipPath2)"/>
      <text x="173.5464" font-size="13px" y="969.5698" clip-path="url(#clipPath10)" font-family="sans-serif" stroke="none" font-weight="bold" xml:space="preserve">User</text>
      <line stroke-linecap="square" clip-path="url(#clipPath10)" fill="none" x1="77" x2="299" y1="977" y2="977" stroke-miterlimit="10"/>
      <text x="81" xml:space="preserve" y="994.4907" clip-path="url(#clipPath10)" font-family="sans-serif" stroke="none">UserID</text>
      <text x="81" xml:space="preserve" y="1009.1919" clip-path="url(#clipPath10)" font-family="sans-serif" stroke="none">UserSignature</text>
      <line stroke-linecap="square" clip-path="url(#clipPath10)" fill="none" x1="77" x2="299" y1="1016" y2="1016" stroke-miterlimit="10"/>
      <path fill="none" d="M259 202.0303 L259 217.5 L132 217.5 L132 227.9697" clip-path="url(#clipPath2)"/>
      <path d="M132 231.9697 L138 219.9697 L132 231.9697 L126 219.9697 Z" clip-path="url(#clipPath2)" stroke="none"/>
      <path fill="none" stroke-miterlimit="10" d="M132 231.9697 L138 219.9697 L132 231.9697 L126 219.9697 Z" clip-path="url(#clipPath2)" stroke-linecap="square"/>
      <path fill="none" d="M442 901.0391 L442 915.961" clip-path="url(#clipPath2)"/>
      <path d="M442 919.961 L448 907.961 L442 919.961 L436 907.961 Z" clip-path="url(#clipPath2)" stroke="none"/>
      <path fill="none" stroke-miterlimit="10" d="M442 919.961 L448 907.961 L442 919.961 L436 907.961 Z" clip-path="url(#clipPath2)" stroke-linecap="square"/>
      <path fill="none" d="M442 691.9697 L442 668.0303" clip-path="url(#clipPath2)"/>
      <path fill="white" d="M442 698.9697 L437 691.9697 L442 684.9697 L447 691.9697 Z" clip-path="url(#clipPath2)" stroke="none"/>
      <path fill="none" d="M442 698.9697 L437 691.9697 L442 684.9697 L447 691.9697 Z" clip-path="url(#clipPath2)"/>
      <path fill="none" d="M596 435.043 L596 457 L386 457 L386 465.9648" clip-path="url(#clipPath2)"/>
      <path fill="white" d="M386 465.9648 L392 449.9648 L380 449.9648 Z" clip-path="url(#clipPath2)" stroke="none"/>
      <path fill="none" d="M386 465.9648 L392 449.9648 L380 449.9648 Z" clip-path="url(#clipPath2)"/>
      <path fill="none" d="M132 435.0303 L132 450.5 L311.3333 450.5 L311.3333 450.9697" clip-path="url(#clipPath2)"/>
      <path fill="white" d="M311.3333 465.9697 L317.3333 449.9697 L305.3333 449.9697 Z" clip-path="url(#clipPath2)" stroke="none"/>
      <path fill="none" d="M311.3333 465.9697 L317.3333 449.9697 L305.3333 449.9697 Z" clip-path="url(#clipPath2)"/>
      <path fill="none" d="M328.2976 202.0088 L328.2976 450.9817" clip-path="url(#clipPath2)"/>
      <path fill="white" d="M328.2976 465.9817 L334.2976 449.9817 L322.2976 449.9817 Z" clip-path="url(#clipPath2)" stroke="none"/>
      <path fill="none" d="M328.2976 465.9817 L334.2976 449.9817 L322.2976 449.9817 Z" clip-path="url(#clipPath2)"/>
      <path fill="none" d="M330 668.0303 L330 683.5 L188 683.5 L188 724.4551" clip-path="url(#clipPath2)"/>
      <path d="M188 728.4551 L194 716.4551 L188 728.4551 L182 716.4551 Z" clip-path="url(#clipPath2)" stroke="none"/>
      <path fill="none" stroke-miterlimit="10" d="M188 728.4551 L194 716.4551 L188 728.4551 L182 716.4551 Z" clip-path="url(#clipPath2)" stroke-linecap="square"/>
      <path fill="none" d="M188 870.5396 L188 946.4604" clip-path="url(#clipPath2)"/>
      <path d="M188 950.4604 L194 938.4604 L188 950.4604 L182 938.4604 Z" clip-path="url(#clipPath2)" stroke="none"/>
      <path fill="none" stroke-miterlimit="10" d="M188 950.4604 L194 938.4604 L188 950.4604 L182 938.4604 Z" clip-path="url(#clipPath2)" stroke-linecap="square"/>
    </g>
  </g>
</svg>
