<svg viewBox="0 0 50 50" xmlns="http://www.w3.org/2000/svg" xmlns:svg="http://www.w3.org/2000/svg">
  <rect id="rect4153" stroke-linejoin="round" height="49.806" width="49.806" stroke="#1a1a1a" stroke-linecap="round" y=".097046" x=".097066" stroke-width=".19412" fill="#ffffff"/><g id="g3" transform="matrix(.097656 0 0 .097656 .0000040876 0)"><g id="g5" fill="#4e6476"><path id="path7" d="m403.19 172.26c0.547-0.492 1.089-0.994 1.616-1.521l21.969-21.967c12.998-13 14.935-32.139 4.323-42.75l-33.3-33.297c-10.61-10.611-29.749-8.676-42.748 4.322l-21.968 21.969c-0.528 0.527-1.031 1.068-1.522 1.617l71.632 71.631z"/><polygon id="polygon9" points="135.26 439.4 88.128 451.11 41 462.82 52.712 415.69 64.425 368.56 99.842 403.98"/><polygon id="polygon11" points="391.47 184.08 340.24 132.84 108.01 365.07 97.761 354.83 329.99 122.6 319.74 112.35 74.961 357.13 146.69 428.86"/></g><path id="path13" d="m461.84 458.94c-38.894-0.305-43.742-9.674-56.415-48.719-23.379-61.619-128.68 16.125-63.427 43.123s158.74 5.9 119.84 5.596z"/><g id="g15"><path id="path17" d="m332.4 353.03-36.44-51.771-35.998 36 39.147 42.596c19.701 24.449 15.155 23.359 34.024 8.15 18.87-15.203 18.967-10.531-0.733-34.975z"/><path id="path19" d="m218.79 191.63-85.94-122.09c-19.71-24.453-50.972-31.945-69.842-16.738s-18.194 47.348 1.505 71.798l105.99 115.32 48.29-48.29zm-104.48-104.89s-3.401-14.576-30.612-30.611c0 0 28.667-4.373 43.245 19.436-9.719 7.772-12.633 11.175-12.633 11.175z"/></g></g>
</svg>