<svg viewBox="0 0 335.08 335.08">
 <path d="m311.18 115.78c-1.355-10.186-1.546-27.73 7.915-33.621 0.169-0.108 0.295-0.264 0.443-0.398 7.735-2.474 13.088-5.946 8.886-10.618l-114.1-34.38-184.76 25.687s-21.157 3.024-19.267 35.894c1.026 17.89 6.637 26.676 11.544 31l-15.161 4.569c-4.208 4.672 1.144 8.145 8.88 10.615 0.147 0.138 0.271 0.293 0.443 0.401 9.455 5.896 9.273 23.438 7.913 33.626-33.967 9.645-21.774 12.788-21.774 12.788l7.451 1.803c-5.241 4.736-10.446 13.717-9.471 30.75 1.891 32.864 19.269 35.132 19.269 35.132l120.9 39.298 182.49-44.202s12.197-3.148-21.779-12.794c-1.366-10.172-1.556-27.712 7.921-33.623 0.174-0.105 0.301-0.264 0.442-0.396 7.736-2.474 13.084-5.943 8.881-10.615l-7.932-2.395c5.29-3.19 13.236-11.527 14.481-33.183 0.859-14.896-3.027-23.62-7.525-28.756l15.678-3.794c1e-3 6e-3 12.198-3.142-21.773-12.788zm-152.64-0.421 30.688-6.307 103.71-21.312 15.451-3.178c-4.937 9.036-4.73 21.402-3.913 29.35 0.179 1.798 0.385 3.44 0.585 4.688l-16.912 4.205-130.9 32.563 1.29-40.009zm-131.82 31.983 15.449 3.178 99.597 20.474 8.701 1.782 26.093 5.363 1.287 40.01-134.53-33.471-13.263-3.296c0.195-1.25 0.401-2.89 0.588-4.693 0.812-7.942 1.023-20.311-3.918-29.347zm-6.002-50.58c-0.187-8.743 1.371-15.066 4.52-18.28 2.004-2.052 4.369-2.479 5.991-2.479 0.857 0 1.474 0.119 1.516 0.119l79.607 25.953 39.717 12.949-1.303 40.289-111.42-31.238-5.88-1.647c-0.216-0.061-0.509-0.103-0.735-0.113-0.459-0.033-11.475-1.047-12.011-25.553zm119.87 184.11-117.3-32.886c-0.217-0.063-0.507-0.105-0.733-0.116-0.467-0.031-11.488-1.044-12.021-25.544-0.19-8.754 1.376-15.071 4.519-18.288 2.009-2.052 4.375-2.479 5.994-2.479 0.859 0 1.474 0.115 1.519 0.115 0 0 5e-3 0 0 0l119.32 38.908-1.295 40.29zm153.7-41.407c0.185 1.804 0.391 3.443 0.591 4.693l-147.81 36.771 1.292-40.01 31.601-6.497 4.667 1.129 17.492-5.685 80.631-16.569 15.457-3.18c-4.942 9.035-4.737 21.406-3.919 29.348zm8.142-54.375c-0.269 6e-3 -0.538 0.042-0.791 0.122l-11.148 3.121-106.15 29.764-1.298-40.289 34.826-11.359 84.327-27.501c0.011-5e-3 4.436-0.988 7.684 2.315 3.144 3.214 4.704 9.537 4.52 18.28-0.55 24.498-11.571 25.516-11.972 25.547z"/>
</svg>
