<svg viewBox="0 0 30 27" xmlns="http://www.w3.org/2000/svg">
    <path d="M24.285 9.961a.456.456 0 0 1 .477.458c0 .26-.212.47-.47.474-1.043.02-3.58.162-5.198 1.049-.274.15-.656-.037-.656-.348 0-.076.024-.15.08-.202.307-.29 1.611-1.225 5.767-1.43zM24.762 5.145a.456.456 0 0 0-.477-.457c-4.156.205-5.46 1.141-5.767 1.43a.272.272 0 0 0-.08.202c0 .312.383.497.656.348 1.618-.886 4.155-1.029 5.197-1.049a.478.478 0 0 0 .471-.474zM24.285 15.235a.456.456 0 0 1 .477.458c0 .259-.212.469-.47.474-1.043.02-3.58.162-5.198 1.048-.274.15-.656-.036-.656-.347 0-.077.024-.15.08-.203.307-.288 1.611-1.224 5.767-1.43z"/>
    <path fill-rule="evenodd" clip-rule="evenodd" d="M1.79.457v1.007H.46A.459.459 0 0 0 0 1.922v20.674c0 .253.205.459.459.459h1.838v-.006c3.317.01 9.478.615 11.563 3.014a.495.495 0 0 0 .37.176h1.574a.535.535 0 0 0 .404-.204c.93-1.114 4.248-2.975 11.495-2.984v.004h1.883A.414.414 0 0 0 30 22.64V1.878a.414.414 0 0 0-.414-.414H28.18V.454A.458.458 0 0 0 27.715 0c-8.08.068-11.158 1.893-12.217 2.846-.257.23-.767.25-1.034.031C13.32 1.935 10.075.071 2.254 0a.46.46 0 0 0-.464.457zm1.15.811V19.38c8.462 0 11.017 2.43 11.256 2.679V4.363c-.386-.65-2.423-3.095-11.256-3.095zM14.215 22.08l-.004-.004h1.52l-.004.004h-1.512zm12.817-2.731c-8.026 0-11.015 2.474-11.285 2.713V4.436c.334-.507 2.49-3.135 11.285-3.135v18.047z"/>
</svg>