<svg viewBox="0 0 50 50" xmlns="http://www.w3.org/2000/svg">
 <path d="m1 0c-0.552 0-1 0.448-1 1v3c0 0.255 0.10625 0.5015 0.28125 0.6875l14.406 15.312h14.625l14.406-15.312c0.035-0.037 0.06575-0.084 0.09375-0.125 0.043-0.063 0.097-0.1155 0.125-0.1875 0.029-0.074 0.02025-0.172 0.03125-0.25 7e-3 -0.048 0.03125-0.076 0.03125-0.125v-3c0-0.552-0.447-1-1-1h-42zm15 22v17c0 0.352 0.199 0.66375 0.5 0.84375l10 6c0.159 0.095 0.322 0.15625 0.5 0.15625 0.17 0 0.347-0.038 0.5-0.125 0.314-0.178 0.5-0.515 0.5-0.875v-23h-12zm16.906 9.9688a1.0001 1.0001 0 0 0-0.125 0.03125 1.0001 1.0001 0 0 0-0.5 1.7188l7.2812 7.2812-7.2812 7.2812a1.0165 1.0165 0 1 0 1.4375 1.4375l7.2812-7.2812 7.2812 7.2812a1.0165 1.0165 0 1 0 1.4375-1.4375l-7.2812-7.2812 7.2812-7.2812a1.0001 1.0001 0 0 0-0.84375-1.7188 1.0001 1.0001 0 0 0-0.59375 0.28125l-7.2812 7.2812-7.2812-7.2812a1.0001 1.0001 0 0 0-0.8125-0.3125z"/>
</svg>
