<svg viewBox="0 0 317.2 675.36" xmlns="http://www.w3.org/2000/svg">
 <path d="m-128.12 498.8a20.48 20.48 0 0 0-20.48 20.48v125.6a20.48 20.48 0 0 0 20.48 20.48h573.44a20.48 20.48 0 0 0 20.48-20.48v-125.6a20.48 20.48 0 1 0-40.96 0v105.12h-532.48v-105.12a20.48 20.48 0 0 0-20.48-20.48z"/>
 <path d="m158.6 10a20.48 20.48 0 0 0-20.48 20.48v440.52l-129.9-125.48a20.473 20.473 0 1 0-28.447 29.45l164.31 158.74 0.041 0.041 0.24576 0.22528c0.75776 0.73728 1.7203 1.0445 2.5395 1.6384 1.2698 0.9216 2.4576 1.9456 3.9322 2.5395a20.255 20.255 0 0 0 15.483 0c1.3722-0.55296 2.4576-1.5155 3.6454-2.3552 0.94208-0.63488 2.007-1.024 2.8467-1.8432l164.58-159.03a20.487 20.487 0 0 0-28.488-29.45l-129.82 125.52v-440.52a20.48 20.48 0 0 0-20.48-20.48z"/>
</svg>
