<svg version="1.1" viewBox="0 0 20 20" xmlns="http://www.w3.org/2000/svg">
 <path d="m9.9297 4.6504c-0.71181 0-1.3984 0.20833-2.0625 0.625v1.1465c0.53819-0.57726 1.1727-0.86523 1.9062-0.86523 0.20399 0 0.39779 0.027561 0.58008 0.083984 0.18229 0.052083 0.34353 0.13173 0.48242 0.24023 0.13889 0.10851 0.24609 0.24371 0.32422 0.4043 0.08247 0.16059 0.125 0.3444 0.125 0.55273 0 0.24306-0.05707 0.46788-0.16992 0.67188-0.10851 0.19965-0.24522 0.39149-0.41016 0.57812-0.16493 0.18229-0.3457 0.36458-0.54102 0.54688-0.19531 0.17795-0.37413 0.36523-0.53906 0.56055s-0.30512 0.40516-0.41797 0.63086c-0.10851 0.22135-0.16211 0.47222-0.16211 0.75 0 0.17795 0.01454 0.35677 0.044922 0.53906 0.030382 0.17795 0.066406 0.32465 0.10547 0.4375h1.0469c-0.04774-0.11285-0.09484-0.24957-0.14258-0.41016-0.04774-0.16493-0.07226-0.34722-0.07226-0.54688 0-0.23438 0.05707-0.44922 0.16992-0.64453 0.11285-0.19531 0.25456-0.3826 0.42383-0.56055 0.17361-0.18229 0.35894-0.36458 0.55859-0.54688 0.19965-0.18229 0.38542-0.3776 0.55469-0.58594 0.17361-0.21267 0.31684-0.44553 0.42969-0.69727 0.11285-0.25174 0.16797-0.53819 0.16797-0.85938 0-0.33854-0.06163-0.63455-0.1875-0.89062-0.12587-0.25608-0.30014-0.4694-0.52149-0.63867-0.21701-0.17361-0.47092-0.30382-0.76172-0.39062-0.2908-0.086806-0.60178-0.13086-0.93164-0.13086zm-0.14844 8.1719c-0.19531 0-0.36458 0.07161-0.50781 0.21484-0.14323 0.13455-0.21484 0.30382-0.21484 0.50781 0 0.19965 0.071614 0.36892 0.21484 0.50781 0.14757 0.13889 0.31684 0.20703 0.50781 0.20703s0.36024-0.06814 0.50781-0.20703c0.14323-0.13889 0.21484-0.30816 0.21484-0.50781 0-0.20399-0.07161-0.37326-0.21484-0.50781-0.14323-0.14323-0.3125-0.21484-0.50781-0.21484z"/>
 <circle cx="10" cy="10" r="9" fill="none" stroke-width="1.1"/>
</svg>
