<svg width="1644" height="1706.7" version="1.0" viewBox="0 0 1233 1280" xmlns="http://www.w3.org/2000/svg">
 <path d="m613 19.7c-12.4 9.8-96.3 74.8-186.5 144.7-291.4 225.6-418.2 324.7-423.4 331-1.1 1.3-0.9 2 0.8 4.4 5.9 8.3 8.1 18.8 8.1 38.8 0.1 15 1.7 27 4.5 32.5 3 5.9 3.4 6.1 6.9 3.7 3.1-2.2 48.8-38.8 76.4-61.2 7.9-6.4 14.7-11.4 15.3-11.1 0.5 0.4 0.9 72.5 0.9 189.3 0 191.9 1.3 358 3 388.7 0.5 9.3 1.5 19 2.3 21.5l1.3 4.5 97.4-0.3c124.7-0.3 421.1-2 584-3.2 69.6-0.5 168-1 218.8-1h92.2v-305.5c0-266 0.2-305.6 1.4-306.1 1-0.4 12.3 8.6 30.8 24.3 35 29.8 59.2 50.1 67.2 56.6 5.5 4.5 6 4.7 7.7 3.1 6.2-5.6 7.5-16.2 4.3-35.4-2.1-12.2-2.4-31.7-0.6-37.5l1.3-4-8.3-7.9c-14.7-14.1-95.5-82.7-192.5-163.5l-29.3-24.3v-21.2c0-11.6 0.7-51.9 1.5-89.6s1.8-89.8 2.2-115.9c0.6-43.6 0.5-47.4-1-46.8-4.3 1.6-42.2 2.9-69.7 2.3-28.5-0.7-61.5 0.5-63.2 2.2-0.4 0.4 0.5 9.8 2.1 20.8 5.8 39.6 6.3 64.6 2 102.9-3.2 28.3-4.2 34-6.2 34-1.8 0-2.2-0.4-111.2-91-73.2-60.9-101.1-84.4-110.3-92.7-3-2.6-5.9-4.8-6.5-4.8-0.7 0.1-11.3 8-23.7 17.7z"/>
</svg>
