<svg viewBox="0 0 20 20">
 <g>
  <rect fill="none" id="canvas_background" height="22.000002" width="22" y="-1" x="-1"/>
 </g>
 <g>
  <title>Layer 1</title>
  <g stroke="null" id="svg_1">
   <rect id="svg_2" stroke-width="0.55145" x="0.321661" y="0.474716" width="13.235" height="12.149786" ry="1.5999"/>
   <path id="svg_3" stroke-width="0.43789px" d="m9.140061,3.518056l0,8.811762m-4.4074,-8.812313l0,8.811762m-4.1394,-2.748987l12.686,0m-12.685,-3.025274l12.686,0m-12.686,-3.025384l12.686,0"/>
   <rect id="svg_4" fill="#757575" stroke-width="0.55145" x="3.103161" y="2.806849" width="13.235" height="12.149786" ry="1.5999"/>
   <path id="svg_5" stroke-width="0.43789px" d="m11.922061,5.850079l0,8.811762m-4.4074,-8.812313l0,8.811762m-4.1394,-2.748987l12.686,0m-12.687,-3.024723l12.686,0m-12.686,-3.025384l12.686,0"/>
   <rect id="svg_6" fill="#757575" stroke-width="0.55145" x="5.481361" y="4.525159" width="13.235" height="12.149786" ry="1.5999"/>
   <path id="svg_7" stroke-width="0.43789px" d="m14.300061,7.568499l0,8.811762m-4.4074,-8.812313l0,8.811762m-4.1394,-2.748987l12.686,0m-12.686,-3.024943l12.686,0m-12.687,-3.025163l12.686,0"/>
   <circle id="svg_8" fill="#757575" stroke-width="0.36663" r="5.711332" cy="12.807702" stroke-linecap="round" cx="13.667061" stroke-linejoin="round"/>
   <path stroke="null" fill="#757575" id="svg_9" d="m13.856061,6.175168c-0.03695,-0.00228 -0.07361,-0.005343 -0.11085,-0.005343c-0.0096,0 -0.01928,0.001245 -0.02892,0.001432c-0.0165,-0.000165 -0.03286,-0.001432 -0.04951,-0.001432c-3.3224,0 -6.0254,2.977684 -6.0254,6.637491c0,3.660138 2.703,6.637822 6.0254,6.637822s6.0254,-2.977684 6.0254,-6.637822c0,-3.589855 -2.6012,-6.521491 -5.8361,-6.632204l-0.00002,0.000055zm-0.09479,12.297403c-0.0054,0.000165 -0.01051,0.000958 -0.01591,0.000958s-0.01066,-0.000804 -0.01591,-0.000958l0.03184,0l-0.00002,0zm-0.532,-0.124483c-0.6086,-0.297493 -1.1436,-1.105147 -1.5081,-2.205557c0.47525,-0.128075 0.98278,-0.211258 1.5081,-0.244241l0,2.449786l0,0.000011zm0,-3.415909c-0.61035,0.035549 -1.2024,0.133539 -1.7582,0.287358c-0.12911,-0.596594 -0.21221,-1.247697 -0.23938,-1.92883l1.9976,0l0,1.641416l-0.00002,0.000055zm-1.998,-2.606437c0.02965,-0.75298 0.12809,-1.469013 0.281,-2.115775c0.54273,0.146417 1.1205,0.238446 1.7168,0.272552l0,1.843233l-1.9978,0l0,-0.000011zm1.9978,-2.810127c-0.49921,-0.032344 -0.986,-0.110537 -1.445,-0.230239c0.36177,-1.006882 0.87047,-1.742766 1.445,-2.023459l0,2.253698zm0.87631,0.975497c0.65037,-0.026064 1.2823,-0.12228 1.8737,-0.282213c0.15306,0.647115 0.25165,1.363367 0.2813,2.116876l-2.155,0l0,-1.834641l0,-0.000022zm0,-0.966497l0,-2.327286c0.63942,0.215114 1.209,0.992231 1.6035,2.09242c-0.5049,0.131126 -1.0456,0.210773 -1.6035,0.23491l0,-0.000044zm1.8533,-1.793991c0.45787,0.251798 0.87675,0.576479 1.2448,0.960218c-0.20462,0.117609 -0.42297,0.223805 -0.65242,0.318248c-0.167,-0.477333 -0.367,-0.906745 -0.592,-1.279203l-0.00038,0.000738zm-5.0173,1.276339c-0.269,-0.110603 -0.52,-0.236959 -0.753,-0.377085c0.416,-0.420599 0.895,-0.766178 1.419,-1.01911c-0.256,0.398236 -0.48,0.867858 -0.666,1.395424l0,0.000771zm-0.27122,0.920636c-0.17628,0.731102 -0.28582,1.539957 -0.31576,2.39801l-1.816,0c0.08529,-1.109003 0.46094,-2.127782 1.0435,-2.963803c0.33081,0.21833 0.69638,0.40738 1.0882,0.56587l0.00006,-0.000077zm-0.31562,3.363471c0.0279,0.787737 0.12312,1.533017 0.27531,2.215361c-0.41464,0.170707 -0.79759,0.375686 -1.1404,0.6114c-0.52973,-0.809295 -0.87032,-1.777577 -0.95109,-2.826541l1.8162,-0.000165l-0.00002,-0.000055zm0.52798,3.138741c0.19819,0.602708 0.44531,1.135442 0.73128,1.578844c-0.57895,-0.278512 -1.1025,-0.670766 -1.5477,-1.151305c0.24887,-0.161057 0.52345,-0.303453 0.81643,-0.427495l-0.00001,-0.000044zm3.2229,1.98336l0,-2.523485c0.57924,0.025734 1.1411,0.112949 1.6648,0.254541c-0.39551,1.193387 -0.99184,2.042186 -1.6648,2.2689l0,0.000044zm0,-3.490488l0,-1.631612l2.1547,0c-0.02717,0.679293 -0.10983,1.328666 -0.23836,1.923762c-0.60115,-0.165728 -1.2463,-0.265954 -1.9164,-0.292183l0.00006,0.000033zm3.0319,-1.631612l1.6592,0c-0.07814,1.016852 -0.40048,1.957912 -0.90275,2.751961c-0.31518,-0.207072 -0.66059,-0.387914 -1.031,-0.54061c0.15175,-0.681551 0.24653,-1.425499 0.27458,-2.211285l-0.00003,-0.000066zm0.00015,-0.965362c-0.03009,-0.858207 -0.13948,-1.666974 -0.31577,-2.398341c0.3498,-0.141426 0.67812,-0.307628 0.97972,-0.496523c0.55529,0.822647 0.9121,1.816354 0.99505,2.894842l-1.659,0l0,0.000022zm-1.1846,5.563851c0.25428,-0.418484 0.47554,-0.909532 0.65621,-1.458878c0.25457,0.107639 0.49468,0.229754 0.71624,0.365386c-0.39785,0.442621 -0.86127,0.812997 -1.3725,1.093437l0.00005,0.000055z"/>
  </g>
 </g>
</svg>
