<svg xmlns="http://www.w3.org/2000/svg" viewBox="0 0 92 100"><path d="M73.1 6.1v88h-67v-88h67m1-6h-69c-2.8 0-5 2.2-5 5v90c0 2.8 2.2 5 5 5h69c2.8 0 5-2.2 5-5v-90c0-2.8-2.3-5-5-5zm18 28v-18c0-2.8-2.2-5-5-5h-5v28h5c2.7 0 5-2.3 5-5zm0 31v-18c0-2.8-2.2-5-5-5h-5v28h5c2.7 0 5-2.3 5-5zm0 31v-18c0-2.8-2.2-5-5-5h-5v28h5c2.7 0 5-2.3 5-5zM54.9 45.4c1-.4 1.9-.8 2.8-1.1 2.7-1.1 4.8-2 5.9-2.3.5-.1.8.2 1 .6.1.5-.2.8-.6 1-1 .2-3.2 1.1-5.7 2.2-1.1.5-2.3.9-3.4 1.4v-1.8zm-.4 5.3c-.1.6-.2 1.2-.4 1.8 4.2-1 8.4-2.2 11.3-4.1.4-.3.5-.8.2-1.1-.3-.4-.8-.5-1.1-.2-2.5 1.6-6.2 2.7-10 3.6zm-6.2 12.4l-.5.5c-.3.3-.6.5-.9.8.1.4.2.7.2 1.1.1.4.4.6.8.6h.2c.5-.2.7-.5.6-1-.1-.5-.3-1.2-.4-2zm2.8-3.6l-1.2 1.8c.2.9.4 1.7.6 2.4.1.4.4.6.8.6 0 0 .1 0 .1.2.5-.2.7-.5.6-1-.3-1.1-.6-2.5-.9-4zm17.2-8.6c-.3-.3-.8-.3-1.1 0-2.4 2.6-8.2 4-12.9 4.8l-.3-1.2c-.1-.2-.1-.5-.2-.7-.4 1.3-1 2.6-1.6 3.9.3 0 .6-.1.9-.1.3 1.4.7 2.6 1.1 3.6.2.3.5.5.8.5.1 0 .2 0 .3-.1.4-.2.6-.6.5-1-.4-1-.7-2.1-1-3.3 5-.8 11-2.3 13.7-5.3.1-.3.1-.8-.2-1.1zm-15.7 5c-.1-.4-.2-.7-.2-1.1-.2-.6-.3-1.3-.5-2-.6.1-1.2.2-1.7.4-.2 0-.3.1-.5.1.3.9.5 1.9.7 2.8.7 0 1.4-.1 2.2-.2zm-2.7-4.2c.5-.1 1.1-.2 1.6-.4-.2-.9-.5-1.7-.7-2.6-.7.3-1.4.5-2.1.8.2.7.5 1.5.7 2.2.1.1.3 0 .5 0zm-1.6 4.7h.6c-.2-.9-.4-1.8-.6-2.8-.6.1-1.3.3-1.9.4.2.8.4 1.7.5 2.5.5-.1 1-.1 1.4-.1zm5.1-3.8c.1.4.2.8.3 1.1.1-.4.3-.9.4-1.3-.2.1-.4.1-.7.2zm-5.5-.5c-.2-.7-.4-1.4-.6-2l-1.8.6c.2.6.3 1.2.5 1.9.6-.2 1.3-.4 1.9-.5zm-6.3-11.8c3.1.9 5.1 3.9 6.6 7.7.7-.3 1.4-.5 2.2-.8-1.3-4-3.1-7.4-5.9-8.5-1.5-.5-3.5-.8-5.7-.8-1.6 0-3.4.2-5.1.5-4.3.8-7.7 2.4-9 4.3-1.4 2.1-1.6 5.4-.6 8.6s2.9 5.6 5.3 6.5c3.1 1.2 8.9.2 13.6-.6.8-.2 1.6-.3 2.4-.4-.2-.8-.3-1.5-.5-2.3-6.4 1.7-14.2 3.6-17.4-4.3-1.3-3.3-.2-5.6.9-6.8 3-3.5 9.7-4 13.2-3.1zm-3.1 4.4c-1.5 0-3.2.5-4.2 1.4-1.2 1-1.3 2.2-.3 3.6 1.2 1.6 5.1 1.1 9.4-.2-.5-1.7-1.1-2.9-1.8-3.6-.7-.8-1.8-1.2-3.1-1.2zm2.7-3c-1.1-.2-2.1-.4-3.2-.4-3.7 0-7.2 1.5-8.5 2.9-1.2 1.4-1.4 3.1-.6 5.2 2.6 6.6 9.1 5 15.5 3.4-.2-.6-.3-1.2-.5-1.8-5.4 1.5-9.5 1.8-11.2-.5-1.5-2-1.4-4.2.5-5.7 2.4-2 7.3-2.5 9.6-.2.8.8 1.5 2.4 2.1 4.3.6-.2 1.2-.4 1.7-.6-1.2-3.2-2.9-5.9-5.4-6.6zm5 19.4c-.2-.8-.3-1.7-.5-2.6-.8.1-1.6.2-2.4.4-5.1.9-11 1.9-14.4.5-2.7-1.1-5.1-3.9-6.2-7.5-1.1-3.7-.8-7.5.8-10 1.5-2.3 5.1-4.2 10-5.1 4.5-.8 8.8-.6 11.6.5 3.3 1.3 5.3 5.1 6.8 9.4 1.1-.4 2.2-.8 3.2-1.2-.5-10.2-8.6-17.9-21.5-15.8-8.3 1.4-15.7 6.6-17.5 14.7C12.6 60 35.3 75.3 48 63.7c-.3.3-.6.5-.9.8-.4-1-.7-2.2-.9-3.4zm3.3-1.7c-.1-.5-.2-.9-.3-1.4-.3 0-.5.1-.8.1-.4 0-.8.1-1.2.1.2.9.3 1.8.5 2.6.2.9.3 1.7.5 2.4l-.5.5c.7-.7 1.5-1.5 2.1-2.3 0-.7-.2-1.3-.3-2zm1.2-1.6c.1.5.2.9.3 1.4 0 .1 0 .2.1.3-.1.1-.2.3-.3.4.4-.6.8-1.3 1.1-2 .1-.1.1-.2.2-.3-.5.1-.9.1-1.4.2zm1.6-9.6c.3.9.5 1.9.8 2.8l1.5-.3c.2-1.2.4-2.3.4-3.5-1 .3-1.9.7-2.7 1z" fill="#fff"/></svg>