<svg viewBox="0 0 252 205">
 <path d="m15.005 4.9748v6.4031h-10.005c-2.7614 0-5 2.2386-5 5v158.26c0 2.762 2.2386 5 5 5h14.258v-0.092c0.2659 0.045 0.5387 0.068 0.8166 0.07 27.785 0.166 78.066 4.897 95.725 23.086 1.047 1.078 2.453 1.77 3.955 1.77h12.192c1.663 0 3.189-0.843 4.339-2.045 8.297-8.674 35.91-22.564 94.874-22.801 0.365-2e-3 0.72-0.042 1.063-0.116v0.128h14.259c2.761 0 5-2.238 5-5v-158.26c0-2.7614-2.239-5-5-5h-10.259v-6.4129c0-2.7614-2.295-4.9928-5.056-4.9648-63.984 0.64973-90.149 13.593-100.02 21.175-2.871 2.2051-8.202 2.4166-11.148 0.3131-10.536-7.5239-37.854-20.8-99.945-21.486-2.7612-0.030489-5.0496 2.2109-5.0496 4.9724zm9.6292 4.8825v141.14c74.753 0 94.518 21.032 94.518 21.032h0.848v-136.84h-0.341s-9.629-25.34-95.025-25.34zm107.05 25.143h0.314v136.88c2.305-1.895 27.375-21.136 94.594-21.136v-140.64c-77.342 0-93.44 22.54-94.908 24.889z" clip-rule="evenodd" fill-rule="evenodd"/>
</svg>
