<svg viewBox="0 0 24 24">
 <ellipse rx="11.405" ry="11.405" fill="none" cy="12" cx="12"/>
 <path stroke-width="0" d="m19.46 10.145q0 2.4908-1.1782 4.4943-1.4263 2.3554-3.9687 2.7074v-2.1659q1.2092-0.21659 1.9844-1.2454 0.68212-0.94759 0.68212-1.9764-0.43408 0.1083-0.86816 0.1083-1.3022 0-2.1704-0.8393-0.86816-0.8393-0.86816-1.8681 0-1.11 0.89917-1.8952 0.93017-0.81222 2.2014-0.81222 1.5503 0 2.4805 1.11 0.80615 0.97467 0.80615 2.3825zm-8.5336 0q0 2.4908-1.1782 4.4943-1.4263 2.3554-3.9687 2.7074v-2.1659q1.2092-0.21659 1.9844-1.2454 0.68212-0.94759 0.68212-1.9764-0.43408 0.1083-0.86816 0.1083-1.3022 0-2.1704-0.8393-0.86816-0.8393-0.86816-1.8681 0-1.11 0.89916-1.8952 0.93017-0.81222 2.2014-0.81222 1.5503 0 2.4805 1.11 0.80615 0.97467 0.80615 2.3825z"/>
</svg>
