<svg version="1.1" viewBox="0 0 50 50.109" xmlns="http://www.w3.org/2000/svg">
 <g transform="matrix(.10239 0 0 .10239 -.054536 -3.8712e-5)">
  <path class="sort-arrow-down" d="m261.29 326.1c-8.3-7.3-21.8-6.2-29.1 2.1l-77 86.8v-346.9c0-11.4-9.4-20.8-20.8-20.8s-20.8 9.4-20.8 20.8v346.9l-77-86.8c-8.3-8.3-20.8-9.4-29.1-2.1-8.3 8.3-9.4 20.8-2.1 29.1l113.4 126.9c8.5 10.5 23.5 8.9 30.2 0l114.4-126.9c7.3-8.2 6.3-21.8-2.1-29.1z"/>
  <path class="sort-arrow-up" d="m483.99 134.7-112.4-126.9c-10-10.1-22.5-10.7-31.2 0l-114.4 126.9c-7.3 8.3-6.2 21.8 2.1 29.1 12.8 10.2 25.7 3.2 29.1-2.1l77-86.8v345.9c0 11.4 9.4 20.8 20.8 20.8s20.8-8.3 20.8-19.8v-346.8l77 86.8c8.3 8.3 20.8 9.4 29.1 2.1 8.3-8.4 9.4-20.9 2.1-29.2z"/>
 </g>
</svg>
