<svg viewBox="0 0 16 22" xmlns="http://www.w3.org/2000/svg">
 <path d="m10.148 21h-2.2387l-0.64874-2.0289h-3.2437l-0.64247 2.0289h-2.2261l3.3201-9.1206h2.4358zm-3.3582-3.6063-0.97958-3.0656q-0.10708-0.34339-0.15139-0.82047h-0.051693q-0.036924 0.40069-0.15877 0.79503l-0.9925 3.0911z"/>
 <path d="m9.1474 10.121h-7.3463v-1.183l4.6749-6.2648h-4.3378v-1.6727h6.9962v1.1512l-4.573 6.303h4.5859z"/>
 <path d="m12.501 1.6633v12.593l-1.4139-1.412 1.4139 4.9457c-0.24765-0.92424 0.18919 0.66056 0.20035 0.69835l0.26904 0.94258 0.26904-0.94258c0.64922-2.4229 0.0264-0.05109 0.20035-0.70026l1.412-4.9438-1.412 1.412v-12.593z"/>
</svg>
