<svg enable-background="new 0 0 1000 1000" version="1.1" viewBox="0 0 1000 1000" xmlns="http://www.w3.org/2000/svg">
 <path d="m500 10c-270.6 0-490 219.4-490 490s219.4 490 490 490 490-219.4 490-490-219.4-490-490-490zm-64.7 733.6c-49.3 49.3-129.6 49.3-179 0-49.3-49.3-49.3-129.6 0-178.9l126.8-126.8c49.3-49.3 129.6-49.3 179 0 1.3 1.3 2.6 2.7 3.9 4.1 0.7 0.6 1.5 1.3 2.2 2 2 2 3.6 4.2 5 6.5 0.2 0.2 0.3 0.4 0.5 0.6l-0.1 0.1c6.1 11.5 4.3 26-5.4 35.6-9.7 9.7-24.4 11.5-35.9 5.2-0.8 0.8-8.7-7.1-13-11.3-25.8-25.8-67.3-26-93.1-0.2l-127 127c-25.8 25.8-25.8 67.5 0 93.3s67.5 25.8 93.3 0l76.4-76.4c26.5 13 57.7 13.4 84.5 1.1l-118.1 118.1zm308.3-308.3-126.7 126.8c-49.3 49.3-129.6 49.3-179 0-1.3-1.3-2.6-2.7-3.9-4.1-0.7-0.6-1.5-1.3-2.1-2-2-2-3.6-4.2-5-6.5-0.2-0.2-0.3-0.4-0.5-0.6l0.1-0.1c-6.1-11.5-4.3-26 5.4-35.6 9.7-9.7 24.4-11.4 35.9-5.2 0.8-0.8 8.7 7.1 13 11.3 25.8 25.8 67.3 26 93.1 0.2l127-127c25.8-25.8 25.8-67.5 0-93.3s-67.5-25.8-93.3 0l-76.6 76.4c-26.4-12.9-57.7-13.4-84.5-1.1l118.1-118.1c49.3-49.3 129.6-49.3 179 0s49.4 129.6 0 178.9z"/>
</svg>
