<svg width="19" height="25" viewBox="0 0 19 25" fill="none" xmlns="http://www.w3.org/2000/svg">
<path fill-rule="evenodd" clip-rule="evenodd" d="M9.90026 2.74434C8.52884 1.2872 6.42417 1.31727 5.0611 2.74738C3.68201 4.19428 4.03635 5.53683 4.36113 6.1052C4.54282 6.42316 4.43235 6.82821 4.11439 7.0099C3.79643 7.19159 3.39138 7.08113 3.20968 6.76316C2.65035 5.78433 2.24434 3.7805 4.10112 1.8324C5.97392 -0.132501 8.95831 -0.191475 10.866 1.83543C11.4906 2.49914 11.8872 3.35006 12.0524 4.16373C12.2138 4.9583 12.1751 5.82998 11.7781 6.481C11.5875 6.79367 11.1794 6.89259 10.8668 6.70193C10.5541 6.51128 10.4552 6.10325 10.6458 5.79058C10.8014 5.53539 10.8787 5.04773 10.7528 4.42772C10.6307 3.82681 10.3365 3.20788 9.90026 2.74434ZM7.36893 3.88205C6.8298 3.9014 6.40385 4.25053 6.40385 4.82323V17.3556C6.40385 17.6932 6.1501 17.977 5.81454 18.0145C5.47897 18.0521 5.16876 17.8315 5.09409 17.5022C4.88847 16.5954 4.44956 15.3306 3.82661 14.4448C3.51528 14.0021 3.19547 13.7081 2.88835 13.5687C2.61306 13.4437 2.30719 13.4217 1.9177 13.6096C1.77474 13.6786 1.58007 13.8785 1.69872 14.657C1.81152 15.397 2.18292 16.3793 2.72973 17.4863C3.81532 19.6839 5.48827 22.1689 6.70224 23.7875C6.92196 24.0805 6.86259 24.4961 6.56962 24.7158C6.27665 24.9356 5.86103 24.8762 5.6413 24.5832C4.40185 22.9306 2.67648 20.3728 1.54072 18.0736C0.976862 16.9322 0.531837 15.8025 0.387689 14.8568C0.249394 13.9495 0.35726 12.8899 1.34154 12.4151C2.0793 12.0593 2.79707 12.0707 3.43664 12.3611C4.04436 12.6371 4.53062 13.1405 4.91139 13.6819C4.96834 13.7629 5.02377 13.8459 5.07768 13.9307V4.82323C5.07768 3.37351 6.24385 2.5954 7.32136 2.55673C7.86637 2.53717 8.44129 2.69664 8.8966 3.08106C9.36321 3.47501 9.65371 4.06309 9.6855 4.79443C9.72648 5.737 9.71733 6.77314 9.70405 7.78543C9.96356 7.71006 10.2337 7.67719 10.4913 7.67865C10.9498 7.68127 11.445 7.79305 11.8478 8.05429C12.1352 8.24078 12.383 8.51223 12.511 8.86248C12.8212 8.72526 13.1569 8.66084 13.4823 8.66084C14.0004 8.66084 14.5444 8.8241 14.9704 9.18444C15.2171 9.39306 15.4121 9.65824 15.5361 9.97071C15.8474 9.80267 16.1934 9.70939 16.5383 9.69512C17.0735 9.67299 17.634 9.83724 18.0677 10.2252C18.5121 10.6227 18.7704 11.2081 18.7704 11.9183V11.9517C18.7704 16.6361 18.7704 19.5458 17.7558 23.5844C17.6666 23.9396 17.3063 24.1551 16.9511 24.0659C16.596 23.9767 16.3804 23.6164 16.4696 23.2612C17.4418 19.3915 17.4442 16.6301 17.4442 11.9183C17.4442 11.5441 17.3172 11.3332 17.1835 11.2136C17.039 11.0843 16.8287 11.0104 16.593 11.0202C16.1351 11.0391 15.6871 11.3579 15.6871 12.0373V13.907C15.6871 14.2732 15.3902 14.5706 15.024 14.5706C14.6578 14.5706 14.3609 14.2737 14.3609 13.9075V10.791C14.3609 10.4937 14.2516 10.3133 14.114 10.197C13.9618 10.0683 13.735 9.98702 13.4823 9.98702C13.2296 9.98702 13.0028 10.0683 12.8506 10.197C12.713 10.3133 12.6037 10.4937 12.6037 10.791V13.9075C12.6037 14.2737 12.3068 14.5706 11.9406 14.5706C11.5744 14.5706 11.2775 14.2737 11.2775 13.9075V9.39853C11.2775 9.31924 11.2502 9.24744 11.126 9.16689C10.9841 9.07483 10.7528 9.00634 10.4838 9.00481C10.2147 9.00327 9.98431 9.06915 9.84295 9.15967C9.72237 9.23689 9.68776 9.31065 9.68613 9.40294V10.3677C9.68739 10.7284 9.68972 11.0825 9.69195 11.4209C9.69784 12.3146 9.703 13.0981 9.68574 13.5988C9.67327 13.9604 9.37332 14.2452 9.01161 14.239C8.64991 14.2327 8.35995 13.9377 8.35995 13.576V10.412C8.35877 10.0816 8.35848 9.74114 8.35996 9.39569C8.3619 8.94341 8.36812 8.48514 8.37434 8.02739C8.38915 6.9367 8.40392 5.84894 8.36058 4.85203C8.34337 4.45612 8.19907 4.22777 8.04107 4.09437C7.87176 3.95142 7.63223 3.8726 7.36893 3.88205Z" />
</svg>
