<svg viewBox="0 0 442 442" >
 <path d="m171 336h-101c-5.523 0-10 4.477-10 10s4.477 10 10 10h101c5.523 0 10-4.477 10-10s-4.477-10-10-10z"/>
 <path d="m322 336h-101c-5.523 0-10 4.477-10 10s4.477 10 10 10h101c5.522 0 10-4.477 10-10s-4.478-10-10-10z"/>
 <path d="m322 86h-252c-5.523 0-10 4.477-10 10s4.477 10 10 10h252c5.522 0 10-4.477 10-10s-4.478-10-10-10z"/>
 <path d="m322 136h-101c-5.523 0-10 4.477-10 10s4.477 10 10 10h101c5.522 0 10-4.477 10-10s-4.478-10-10-10z"/>
 <path d="m322 186h-101c-5.523 0-10 4.477-10 10s4.477 10 10 10h101c5.522 0 10-4.477 10-10s-4.478-10-10-10z"/>
 <path d="m322 236h-101c-5.523 0-10 4.477-10 10s4.477 10 10 10h101c5.522 0 10-4.477 10-10s-4.478-10-10-10z"/>
 <path d="m322 286h-101c-5.523 0-10 4.477-10 10s4.477 10 10 10h101c5.522 0 10-4.477 10-10s-4.478-10-10-10z"/>
 <path d="m171 286h-101c-5.523 0-10 4.477-10 10s4.477 10 10 10h101c5.523 0 10-4.477 10-10s-4.477-10-10-10z"/>
 <path d="m171 136h-101c-5.523 0-10 4.477-10 10v101c0 5.523 4.477 10 10 10h101c5.523 0 10-4.477 10-10v-101c0-5.523-4.477-10-10-10zm-10 101h-81v-81h81v81z"/>
 <path d="m422 76h-30v-30c0-11.028-8.972-20-20-20h-352c-11.028 0-20 8.972-20 20v320c0 27.57 22.43 50 50 50h342c27.57 0 50-22.43 50-50v-270c0-11.028-8.972-20-20-20zm0 290c0 16.542-13.458 30-30 30h-342c-16.542 0-30-13.458-30-30v-320h352v305c0 13.785 11.215 25 25 25 5.522 0 10-4.477 10-10s-4.478-10-10-10c-2.757 0-5-2.243-5-5v-255h30v270z"/>
</svg>
