<svg width="252" height="205" viewBox="0 0 252 205" fill="none" xmlns="http://www.w3.org/2000/svg">
<path d="M95.3787 68.6225C94.8987 68.6225 94.4587 68.7825 94.0587 69.1025C93.6587 69.3825 93.2987 69.9025 92.9787 70.6625C92.6987 71.4225 92.4587 72.4225 92.2587 73.6625C92.0987 74.9025 91.9987 76.4425 91.9587 78.2825H94.7787C96.2187 78.2825 97.1787 78.0025 97.6587 77.4425C98.1787 76.8425 98.4387 75.7825 98.4387 74.2625C98.4387 72.1825 98.1187 70.7225 97.4787 69.8825C96.8787 69.0425 96.1787 68.6225 95.3787 68.6225Z" fill="#333333"/>
<path d="M142.909 104.982C145.829 104.982 148.009 104.603 149.449 103.842C150.889 103.122 151.609 102.182 151.609 101.022C151.609 100.342 151.329 99.6825 150.769 99.0425C150.209 98.4025 149.229 98.0825 147.829 98.0825H141.829C140.549 98.0825 139.349 98.0225 138.229 97.9025C137.149 97.8225 136.169 97.6425 135.289 97.3625C135.089 97.8025 134.949 98.2025 134.869 98.5625C134.829 98.9625 134.809 99.4625 134.809 100.062C134.809 101.783 135.429 103.022 136.669 103.783C137.949 104.583 140.029 104.982 142.909 104.982Z" fill="#333333"/>
<path d="M143.149 68.3825C142.029 68.3825 141.209 68.9425 140.689 70.0625C140.169 71.1825 139.909 72.8025 139.909 74.9225C139.909 77.0425 140.149 78.6825 140.629 79.8425C141.109 80.9625 141.949 81.5225 143.149 81.5225C144.349 81.5225 145.209 80.9625 145.729 79.8425C146.249 78.6825 146.509 77.0425 146.509 74.9225C146.509 72.8025 146.229 71.1825 145.669 70.0625C145.109 68.9425 144.269 68.3825 143.149 68.3825Z" fill="#333333"/>
<path fill-rule="evenodd" clip-rule="evenodd" d="M15.005 4.97482V11.3779H5C2.23858 11.3779 0 13.6165 0 16.3779V174.635C0 177.397 2.23857 179.635 5 179.635H19.2584V179.543C19.5243 179.588 19.7971 179.611 20.075 179.613C47.8597 179.779 98.1412 184.51 115.8 202.699C116.847 203.777 118.253 204.469 119.755 204.469H131.947C133.61 204.469 135.136 203.626 136.286 202.424C144.583 193.75 172.196 179.86 231.16 179.623C231.525 179.621 231.88 179.581 232.223 179.507V179.635H246.482C249.243 179.635 251.482 177.397 251.482 174.635V16.3779C251.482 13.6165 249.243 11.3779 246.482 11.3779H236.223V4.96502C236.223 2.2036 233.928 -0.0277784 231.167 0.000261399C167.183 0.649994 141.018 13.5936 131.148 21.175C128.277 23.3801 122.946 23.5916 120 21.4881C109.464 13.9642 82.1463 0.688063 20.0546 0.00246481C17.2934 -0.0280242 15.005 2.2134 15.005 4.97482ZM24.6342 9.85734V151.001C99.3871 151.001 119.152 172.033 119.152 172.033H120V119.562H43C41.3431 119.562 40 118.219 40 116.562V54.5625C40 52.9056 41.3431 51.5625 43 51.5625H120V35.1973H119.659C119.659 35.1973 110.03 9.85722 24.6342 9.85734ZM131.686 35H132V51.5625H210C211.657 51.5625 213 52.9056 213 54.5625V116.562C213 118.219 211.657 119.562 210 119.562H132V171.884C134.305 169.989 159.375 150.748 226.594 150.748V10.1107C149.252 10.1107 133.154 32.6505 131.686 35ZM96.0987 65.3825C98.2587 65.3825 100.139 65.7225 101.739 66.4025C103.339 67.0825 104.679 68.0225 105.759 69.2225C106.839 70.4225 107.639 71.8225 108.159 73.4225C108.719 75.0225 108.999 76.7225 108.999 78.5225C108.999 79.1625 108.979 79.7225 108.939 80.2025C108.899 80.6425 108.819 81.1425 108.699 81.7025H92.0187C92.3387 84.6625 93.1987 86.8025 94.5987 88.1225C95.9987 89.4025 97.5987 90.0425 99.3987 90.0425C100.919 90.0425 102.219 89.7825 103.299 89.2625C104.419 88.7025 105.399 88.0225 106.239 87.2225L108.579 89.5025C107.299 91.9425 105.559 93.7225 103.359 94.8425C101.159 95.9625 98.5587 96.5225 95.5587 96.5225C93.3187 96.5225 91.2387 96.1825 89.3187 95.5025C87.3987 94.7825 85.7387 93.7625 84.3387 92.4425C82.9787 91.0825 81.8987 89.4425 81.0987 87.5225C80.3387 85.5625 79.9587 83.3425 79.9587 80.8625C79.9587 78.3025 80.4187 76.0625 81.3387 74.1425C82.2987 72.1825 83.5387 70.5625 85.0587 69.2825C86.6187 67.9625 88.3587 66.9825 90.2787 66.3425C92.1987 65.7025 94.1387 65.3825 96.0987 65.3825ZM119.221 96.5225C118.381 96.5225 117.601 96.3625 116.881 96.0425C116.201 95.7625 115.581 95.3625 115.021 94.8425C114.501 94.3225 114.081 93.7225 113.761 93.0425C113.481 92.3225 113.341 91.5625 113.341 90.7625C113.341 89.1225 113.901 87.7225 115.021 86.5625C116.141 85.4025 117.541 84.8225 119.221 84.8225C120.901 84.8225 122.301 85.4025 123.421 86.5625C124.541 87.7225 125.101 89.1225 125.101 90.7625C125.101 91.5625 124.941 92.3225 124.621 93.0425C124.341 93.7225 123.921 94.3225 123.361 94.8425C122.841 95.3625 122.221 95.7625 121.501 96.0425C120.821 96.3625 120.061 96.5225 119.221 96.5225ZM129.889 75.0425C129.889 73.7225 130.129 72.4825 130.609 71.3225C131.129 70.1225 131.909 69.1025 132.949 68.2625C134.029 67.3825 135.409 66.6825 137.089 66.1625C138.769 65.6425 140.789 65.3825 143.149 65.3825C145.549 65.3825 147.589 65.6425 149.269 66.1625C150.989 66.6825 152.369 67.3825 153.409 68.2625L160.129 65.2025L161.089 65.8025V70.7825H155.449C156.089 72.0225 156.409 73.4425 156.409 75.0425C156.409 76.3225 156.149 77.5425 155.629 78.7025C155.149 79.8225 154.369 80.8225 153.289 81.7025C152.249 82.5425 150.889 83.2225 149.209 83.7425C147.529 84.2625 145.509 84.5225 143.149 84.5225C140.829 84.5225 138.869 84.2825 137.269 83.8025C136.989 84.4025 136.849 85.1625 136.849 86.0825C136.849 86.7625 137.109 87.2825 137.629 87.6425C138.189 88.0025 139.089 88.1825 140.329 88.1825H146.989C149.549 88.1825 151.689 88.4225 153.409 88.9025C155.129 89.3425 156.509 89.9625 157.549 90.7625C158.589 91.5625 159.329 92.5425 159.769 93.7025C160.209 94.8225 160.429 96.0425 160.429 97.3625C160.429 99.0025 160.029 100.522 159.229 101.923C158.429 103.323 157.229 104.522 155.629 105.522C154.029 106.562 152.049 107.382 149.689 107.982C147.369 108.583 144.689 108.882 141.649 108.882C139.049 108.882 136.909 108.683 135.229 108.283C133.549 107.882 132.209 107.363 131.209 106.723C130.249 106.083 129.569 105.342 129.169 104.503C128.809 103.662 128.629 102.823 128.629 101.982C128.629 100.702 129.029 99.5625 129.829 98.5625C130.629 97.5625 131.769 96.7225 133.249 96.0425C132.009 95.4825 131.129 94.7625 130.609 93.8825C130.129 93.0025 129.889 92.0825 129.889 91.1225C129.889 89.5625 130.329 88.1025 131.209 86.7425C132.129 85.3825 133.329 84.1025 134.809 82.9025C133.089 82.0225 131.829 80.9025 131.029 79.5425C130.269 78.1425 129.889 76.6425 129.889 75.0425ZM170.373 96.5225C169.533 96.5225 168.753 96.3625 168.033 96.0425C167.353 95.7625 166.733 95.3625 166.173 94.8425C165.653 94.3225 165.233 93.7225 164.913 93.0425C164.633 92.3225 164.493 91.5625 164.493 90.7625C164.493 89.1225 165.053 87.7225 166.173 86.5625C167.293 85.4025 168.693 84.8225 170.373 84.8225C172.053 84.8225 173.453 85.4025 174.573 86.5625C175.693 87.7225 176.253 89.1225 176.253 90.7625C176.253 91.5625 176.093 92.3225 175.773 93.0425C175.493 93.7225 175.073 94.3225 174.513 94.8425C173.993 95.3625 173.373 95.7625 172.653 96.0425C171.973 96.3625 171.213 96.5225 170.373 96.5225Z" fill="#333333"/>
</svg>
