<svg viewBox="0 0 156 141" xmlns="http://www.w3.org/2000/svg">
<path d="M8.57306 17.1461C13.3078 17.1461 17.1461 13.3078 17.1461 8.57306C17.1461 3.83829 13.3078 0 8.57306 0C3.83829 0 0 3.83829 0 8.57306C0 13.3078 3.83829 17.1461 8.57306 17.1461Z" />
<path d="M29.1484 2.36269C25.7184 2.36269 22.9379 5.14325 22.9379 8.57324C22.9379 12.0032 25.7184 14.7838 29.1484 14.7838L124.595 14.7838C128.025 14.7838 130.806 12.0032 130.806 8.57323C130.806 5.14324 128.025 2.36268 124.595 2.36268L29.1484 2.36269Z"/>
<path d="M17.1461 69.7278C17.1461 74.4626 13.3078 78.3009 8.57306 78.3009C3.83829 78.3009 0 74.4626 0 69.7278C0 64.9931 3.83829 61.1548 8.57306 61.1548C13.3078 61.1548 17.1461 64.9931 17.1461 69.7278Z" />
<path d="M8.57306 140.027C13.3078 140.027 17.1461 136.189 17.1461 131.454C17.1461 126.719 13.3078 122.881 8.57306 122.881C3.83829 122.881 0 126.719 0 131.454C0 136.189 3.83829 140.027 8.57306 140.027Z" />
<path d="M17.1461 100.591C17.1461 105.325 13.3078 109.164 8.57306 109.164C3.83829 109.164 0 105.325 0 100.591C0 95.8559 3.83829 92.0176 8.57306 92.0176C13.3078 92.0176 17.1461 95.8559 17.1461 100.591Z" />
<path d="M29.1484 32.6547C25.7184 32.6547 22.9379 35.4352 22.9379 38.8652C22.9379 42.2952 25.7184 45.0758 29.1484 45.0758L124.595 45.0758C128.025 45.0758 130.806 42.2952 130.806 38.8652C130.806 35.4352 128.025 32.6547 124.595 32.6547L29.1484 32.6547Z" />
<path d="M17.1461 38.8646C17.1461 43.5993 13.3078 47.4376 8.57306 47.4376C3.83829 47.4376 0 43.5993 0 38.8646C0 34.1298 3.83829 30.2915 8.57306 30.2915C13.3078 30.2915 17.1461 34.1298 17.1461 38.8646Z" />
<path d="M90 130.823C90 128.938 90.1537 127.071 90.4511 125.243L29.1484 125.243C25.7184 125.243 22.9379 128.024 22.9379 131.454C22.9379 134.884 25.7184 137.664 29.1484 137.664H90V130.823Z" />
<path d="M106.79 102.066C104.435 99.9531 102.463 97.4366 100.987 94.6277L29.1484 95.3804C25.7186 95.4163 22.9382 98.226 22.9382 101.656C22.9382 105.086 25.7186 107.837 29.1484 107.801L99.6996 107.062C101.788 105.035 104.166 103.337 106.79 102.066Z" />
<path d="M98.8341 75.9382C100.079 71.1405 102.658 66.8659 106.161 63.5171L29.1484 63.5171C25.7184 63.5171 22.9379 66.2977 22.9379 69.7277C22.9379 73.1576 25.7184 75.9382 29.1484 75.9382H98.8341Z"/>
<path d="M135.143 102.561C142.443 98.7924 147.433 91.1764 147.433 82.3949C147.433 69.868 137.278 59.7129 124.751 59.7129C112.225 59.7129 102.07 69.868 102.07 82.3949C102.07 91.1404 107.019 98.7299 114.27 102.515C102.451 106.766 94 118.075 94 131.357V139.754H155.285V131.357C155.285 118.123 146.895 106.848 135.143 102.561Z"/>
</svg>
