<svg viewBox="0 0 285.102 285.102">
<g>
	<path d="M220.741,46.137h-30.188v-5.785c0-7.444-6.056-13.5-13.5-13.5h-1.667
		C172.294,11.554,158.747,0,142.552,0c-16.195,0-29.742,11.554-32.835,26.852h-1.669c-7.444,0-13.5,6.056-13.5,13.5v5.785H64.36
		c-12.406,0-22.5,10.094-22.5,22.5v193.965c0,12.406,10.094,22.5,22.5,22.5h156.381c12.406,0,22.5-10.094,22.5-22.5V68.637
		C243.241,56.23,233.147,46.137,220.741,46.137z M109.548,41.852h66.006v24.571h-66.006V41.852z M142.552,15
		c7.856,0,14.566,4.931,17.244,11.852h-34.488C127.986,19.931,134.696,15,142.552,15z M228.241,262.602c0,4.136-3.364,7.5-7.5,7.5
		H64.36c-4.136,0-7.5-3.364-7.5-7.5V68.637c0-4.136,3.364-7.5,7.5-7.5h30.188v6.786c0,7.444,6.056,13.5,13.5,13.5h69.006
		c7.444,0,13.5-6.056,13.5-13.5v-6.786h30.188c4.136,0,7.5,3.364,7.5,7.5V262.602z"/>
	<path d="M153.883,107.931H91.891c-4.143,0-7.5,3.357-7.5,7.5c0,4.142,3.357,7.5,7.5,7.5h61.992
		c4.143,0,7.5-3.358,7.5-7.5C161.383,111.288,158.025,107.931,153.883,107.931z"/>
	<path d="M153.883,146.484H91.891c-4.143,0-7.5,3.357-7.5,7.5c0,4.143,3.357,7.5,7.5,7.5h61.992
		c4.143,0,7.5-3.357,7.5-7.5C161.383,149.842,158.025,146.484,153.883,146.484z"/>
	<path d="M153.883,185.041H91.891c-4.143,0-7.5,3.357-7.5,7.5s3.357,7.5,7.5,7.5h61.992
		c4.143,0,7.5-3.357,7.5-7.5S158.025,185.041,153.883,185.041z"/>
	<path d="M153.883,223.597H91.891c-4.143,0-7.5,3.357-7.5,7.5c0,4.143,3.357,7.5,7.5,7.5h61.992
		c4.143,0,7.5-3.357,7.5-7.5C161.383,226.954,158.025,223.597,153.883,223.597z"/>
	<path d="M182.081,120.222c2.019,1.834,4.58,2.824,7.274,2.824c0.226,0,0.453-0.008,0.681-0.021
		c2.94-0.181,5.622-1.516,7.55-3.758l10.421-12.118c1.801-2.093,1.563-5.25-0.531-7.051c-2.093-1.8-5.25-1.563-7.051,0.531
		l-10.421,12.118c-0.195,0.228-0.425,0.286-0.583,0.296c-0.153,0.008-0.393-0.021-0.614-0.222l-6.561-5.965
		c-2.044-1.858-5.206-1.709-7.063,0.336c-1.858,2.043-1.708,5.205,0.336,7.063L182.081,120.222z"/>
	<path d="M200.425,140.659l-10.421,12.117c-0.196,0.228-0.426,0.287-0.584,0.297
		c-0.144,0.013-0.39-0.02-0.613-0.224l-6.561-5.964c-2.045-1.857-5.206-1.705-7.064,0.337c-1.857,2.043-1.706,5.205,0.337,7.064
		l6.56,5.963c2.019,1.836,4.58,2.826,7.275,2.826c0.225,0,0.451-0.007,0.678-0.02c2.942-0.182,5.625-1.517,7.554-3.759
		l10.421-12.116c1.801-2.094,1.563-5.25-0.53-7.052C205.383,138.329,202.228,138.565,200.425,140.659z"/>
	<path d="M200.425,216.718l-10.421,12.117c-0.196,0.227-0.425,0.287-0.583,0.297
		c-0.162,0.008-0.393-0.021-0.614-0.224l-6.561-5.964c-2.045-1.857-5.206-1.705-7.064,0.337c-1.857,2.043-1.706,5.205,0.337,7.063
		l6.561,5.963c2.019,1.836,4.58,2.826,7.275,2.826c0.225,0,0.452-0.007,0.68-0.021c2.941-0.182,5.623-1.516,7.552-3.759
		l10.421-12.117c1.801-2.093,1.563-5.25-0.531-7.051C205.383,214.388,202.226,214.623,200.425,216.718z"/>
	<path d="M179.529,203.302c0.976,0.977,2.256,1.465,3.535,1.465s2.56-0.488,3.535-1.465l4.948-4.948
		l4.949,4.949c0.976,0.977,2.256,1.465,3.535,1.465c1.279,0,2.56-0.488,3.535-1.465c1.953-1.952,1.953-5.118,0-7.07l-4.949-4.949
		l4.95-4.949c1.953-1.952,1.953-5.118,0-7.069c-1.951-1.954-5.119-1.954-7.07,0l-4.949,4.948l-4.949-4.948
		c-1.951-1.954-5.119-1.954-7.07,0c-1.953,1.951-1.953,5.117,0,7.069l4.948,4.949l-4.948,4.948
		C177.576,198.184,177.576,201.35,179.529,203.302z"/>
</g>
</svg>
