<svg viewBox="0 0 22 22" xmlns="http://www.w3.org/2000/svg">
    <path fill-rule="evenodd" clip-rule="evenodd" d="M0.6603 0.660712C1.4002 -0.0791857 2.59981 -0.0791857 3.33971 0.660712L21.3397 18.6607C22.0796 19.4006 22.0796 20.6002 21.3397 21.3401C20.5998 22.08 19.4002 22.08 18.6603 21.3401L0.6603 3.34012C-0.0795972 2.60022 -0.0795972 1.40061 0.6603 0.660712Z"/>
    <path fill-rule="evenodd" clip-rule="evenodd" d="M21.3399 0.66027C22.0798 1.40017 22.0798 2.59978 21.3399 3.33968L3.3399 21.3397C2.6 22.0796 1.40039 22.0796 0.660489 21.3397C-0.0794088 20.5998 -0.0794101 19.4002 0.660489 18.6603L18.6605 0.66027C19.4004 -0.0796277 20.6 -0.0796277 21.3399 0.66027Z"/>
</svg>