<svg viewBox="0 0 900.5 900.5">
<path d="m176.42 880.5c0 11.046 8.954 20 20 20h507.67c11.046 0 20-8.954 20-20v-648.01h-547.67v648.01zm386.33-537.73h75v436.03h-75v-436.03zm-150 0h75v436.03h-75v-436.03zm-150 0h75v436.03h-75v-436.03z"/><path d="m618.82 91.911v-71.911c0-11.046-8.954-20-20-20h-297.15c-11.046 0-20 8.954-20 20v96.911h-139.8c-11.046 0-20 8.954-20 20v50.576c0 11.045 8.954 20 20 20h616.75c11.046 0 20-8.955 20-20v-50.576c0-11.046-8.954-20-20-20h-139.8v-24.999zm-75 20.889h-187.15v-37.799h187.15v37.801z"/>
</svg>
